<?xml version="1.0" standalone="no"?>
<svg xmlns="http://www.w3.org/2000/svg" viewBox="0 0 1000 700" width="1000" height="700">
<rect x="0" y="0" width="1000" height="700" fill="#a9c9de"/>
<g id="provinces">
<polygon id="and" points="0.0,350.0 500.0,350.0 500.0,700.0 0.0,700.0" fill="#a9c9de" stroke="#8fb2c9" stroke-width="0.6"/>
<polygon id="ars" points="1000.0,350.0 500.0,350.0 500.0,700.0 1000.0,700.0" fill="#a9c9de" stroke="#8fb2c9" stroke-width="0.6"/>
<polygon id="bla" points="1000.0,350.0 500.0,350.0 500.0,700.0 1000.0,700.0" fill="#a9c9de" stroke="#8fb2c9" stroke-width="0.6"/>
<polygon id="bob" points="0.0,350.0 500.0,350.0 500.0,700.0 0.0,700.0" fill="#a9c9de" stroke="#8fb2c9" stroke-width="0.6"/>
<polygon id="cls" points="0.0,350.0 500.0,350.0 500.0,700.0 0.0,700.0" fill="#a9c9de" stroke="#8fb2c9" stroke-width="0.6"/>
<polygon id="ecs" points="0.0,0.0 0.0,350.0 500.0,350.0 500.0,0.0" fill="#a9c9de" stroke="#8fb2c9" stroke-width="0.6"/>
<polygon id="eio" points="0.0,350.0 500.0,350.0 500.0,700.0 0.0,700.0" fill="#a9c9de" stroke="#8fb2c9" stroke-width="0.6"/>
<polygon id="goa" points="0.0,0.0 0.0,350.0 500.0,350.0 500.0,0.0" fill="#a9c9de" stroke="#8fb2c9" stroke-width="0.6"/>
<polygon id="gom" points="500.0,0.0 500.0,350.0 1000.0,350.0 1000.0,0.0" fill="#a9c9de" stroke="#8fb2c9" stroke-width="0.6"/>
<polygon id="gos" points="1000.0,350.0 500.0,350.0 500.0,700.0 1000.0,700.0" fill="#a9c9de" stroke="#8fb2c9" stroke-width="0.6"/>
<polygon id="jvs" points="500.0,0.0 500.0,350.0 1000.0,350.0 1000.0,0.0" fill="#a9c9de" stroke="#8fb2c9" stroke-width="0.6"/>
<polygon id="low" points="500.0,0.0 500.0,350.0 1000.0,350.0 1000.0,0.0" fill="#a9c9de" stroke="#8fb2c9" stroke-width="0.6"/>
<polygon id="luz" points="1000.0,350.0 500.0,350.0 500.0,700.0 1000.0,700.0" fill="#a9c9de" stroke="#8fb2c9" stroke-width="0.6"/>
<polygon id="med" points="0.0,350.0 500.0,350.0 500.0,700.0 0.0,700.0" fill="#a9c9de" stroke="#8fb2c9" stroke-width="0.6"/>
<polygon id="mid" points="1000.0,350.0 500.0,350.0 500.0,700.0 1000.0,700.0" fill="#a9c9de" stroke="#8fb2c9" stroke-width="0.6"/>
<polygon id="okh" points="0.0,0.0 0.0,350.0 500.0,350.0 500.0,0.0" fill="#a9c9de" stroke="#8fb2c9" stroke-width="0.6"/>
<polygon id="pgf" points="0.0,350.0 500.0,350.0 500.0,700.0 0.0,700.0" fill="#a9c9de" stroke="#8fb2c9" stroke-width="0.6"/>
<polygon id="red" points="500.0,0.0 500.0,350.0 1000.0,350.0 1000.0,0.0" fill="#a9c9de" stroke="#8fb2c9" stroke-width="0.6"/>
<polygon id="scs" points="500.0,0.0 500.0,350.0 1000.0,350.0 1000.0,0.0" fill="#a9c9de" stroke="#8fb2c9" stroke-width="0.6"/>
<polygon id="sio" points="1000.0,350.0 500.0,350.0 500.0,700.0 1000.0,700.0" fill="#a9c9de" stroke="#8fb2c9" stroke-width="0.6"/>
<polygon id="soj" points="1000.0,350.0 500.0,350.0 500.0,700.0 1000.0,700.0" fill="#a9c9de" stroke="#8fb2c9" stroke-width="0.6"/>
<polygon id="sul" points="0.0,0.0 0.0,350.0 500.0,350.0 500.0,0.0" fill="#a9c9de" stroke="#8fb2c9" stroke-width="0.6"/>
<polygon id="sun" points="0.0,350.0 500.0,350.0 500.0,700.0 0.0,700.0" fill="#a9c9de" stroke="#8fb2c9" stroke-width="0.6"/>
<polygon id="tim" points="1000.0,350.0 500.0,350.0 500.0,700.0 1000.0,700.0" fill="#a9c9de" stroke="#8fb2c9" stroke-width="0.6"/>
<polygon id="upp" points="1000.0,350.0 500.0,350.0 500.0,700.0 1000.0,700.0" fill="#a9c9de" stroke="#8fb2c9" stroke-width="0.6"/>
<polygon id="wio" points="1000.0,350.0 500.0,350.0 500.0,700.0 1000.0,700.0" fill="#a9c9de" stroke="#8fb2c9" stroke-width="0.6"/>
<polygon id="yel" points="0.0,0.0 0.0,350.0 500.0,350.0 500.0,0.0" fill="#a9c9de" stroke="#8fb2c9" stroke-width="0.6"/>
<polygon id="aby" points="500.0,0.0 500.0,350.0 1000.0,350.0 1000.0,0.0" fill="#e9dcbb" stroke="#a2977a" stroke-width="0.6"/>
<polygon id="ade" points="0.0,0.0 0.0,350.0 500.0,350.0 500.0,0.0" fill="#e8a086" stroke="#a2977a" stroke-width="0.6"/>
<polygon id="afg" points="1000.0,350.0 500.0,350.0 500.0,700.0 1000.0,700.0" fill="#e9dcbb" stroke="#a2977a" stroke-width="0.6"/>
<polygon id="aki" points="500.0,0.0 500.0,350.0 1000.0,350.0 1000.0,0.0" fill="#e9dcbb" stroke="#a2977a" stroke-width="0.6"/>
<polygon id="akm" points="0.0,0.0 0.0,350.0 500.0,350.0 500.0,0.0" fill="#e9dcbb" stroke="#a2977a" stroke-width="0.6"/>
<polygon id="ang" points="0.0,0.0 0.0,350.0 500.0,350.0 500.0,0.0" fill="#e0a36c" stroke="#a2977a" stroke-width="0.6"/>
<polygon id="ann" points="1000.0,350.0 500.0,350.0 500.0,700.0 1000.0,700.0" fill="#98c995" stroke="#a2977a" stroke-width="0.6"/>
<polygon id="arb" points="0.0,350.0 500.0,350.0 500.0,700.0 0.0,700.0" fill="#e9dcbb" stroke="#a2977a" stroke-width="0.6"/>
<polygon id="arm" points="500.0,0.0 500.0,350.0 1000.0,350.0 1000.0,0.0" fill="#e9dcbb" stroke="#a2977a" stroke-width="0.6"/>
<polygon id="ass" points="0.0,0.0 0.0,350.0 500.0,350.0 500.0,0.0" fill="#e9dcbb" stroke="#a2977a" stroke-width="0.6"/>
<polygon id="bag" points="500.0,0.0 500.0,350.0 1000.0,350.0 1000.0,0.0" fill="#e0a36c" stroke="#a2977a" stroke-width="0.6"/>
<polygon id="bak" points="0.0,0.0 0.0,350.0 500.0,350.0 500.0,0.0" fill="#e9dcbb" stroke="#a2977a" stroke-width="0.6"/>
<polygon id="ban" points="1000.0,350.0 500.0,350.0 500.0,700.0 1000.0,700.0" fill="#e9dcbb" stroke="#a2977a" stroke-width="0.6"/>
<polygon id="ben" points="1000.0,350.0 500.0,350.0 500.0,700.0 1000.0,700.0" fill="#e9dcbb" stroke="#a2977a" stroke-width="0.6"/>
<polygon id="bok" points="1000.0,350.0 500.0,350.0 500.0,700.0 1000.0,700.0" fill="#e9dcbb" stroke="#a2977a" stroke-width="0.6"/>
<polygon id="bom" points="1000.0,350.0 500.0,350.0 500.0,700.0 1000.0,700.0" fill="#e8a086" stroke="#a2977a" stroke-width="0.6"/>
<polygon id="bor" points="500.0,0.0 500.0,350.0 1000.0,350.0 1000.0,0.0" fill="#edc174" stroke="#a2977a" stroke-width="0.6"/>
<polygon id="bur" points="0.0,0.0 0.0,350.0 500.0,350.0 500.0,0.0" fill="#e9dcbb" stroke="#a2977a" stroke-width="0.6"/>
<polygon id="cam" points="0.0,0.0 0.0,350.0 500.0,350.0 500.0,0.0" fill="#e9dcbb" stroke="#a2977a" stroke-width="0.6"/>
<polygon id="can" points="0.0,0.0 0.0,350.0 500.0,350.0 500.0,0.0" fill="#98b5ba" stroke="#a2977a" stroke-width="0.6"/>
<polygon id="ceb" points="500.0,0.0 500.0,350.0 1000.0,350.0 1000.0,0.0" fill="#e9dcbb" stroke="#a2977a" stroke-width="0.6"/>
<polygon id="cel" points="0.0,0.0 0.0,350.0 500.0,350.0 500.0,0.0" fill="#e9dcbb" stroke="#a2977a" stroke-width="0.6"/>
<polygon id="cey" points="0.0,350.0 500.0,350.0 500.0,700.0 0.0,700.0" fill="#e9dcbb" stroke="#a2977a" stroke-width="0.6"/>
<polygon id="chu" points="1000.0,350.0 500.0,350.0 500.0,700.0 1000.0,700.0" fill="#e9dcbb" stroke="#a2977a" stroke-width="0.6"/>
<polygon id="coc" points="0.0,0.0 0.0,350.0 500.0,350.0 500.0,0.0" fill="#98c995" stroke="#a2977a" stroke-width="0.6"/>
<polygon id="con" points="1000.0,350.0 500.0,350.0 500.0,700.0 1000.0,700.0" fill="#e0a36c" stroke="#a2977a" stroke-width="0.6"/>
<polygon id="dav" points="1000.0,350.0 500.0,350.0 500.0,700.0 1000.0,700.0" fill="#e9dcbb" stroke="#a2977a" stroke-width="0.6"/>
<polygon id="del" points="1000.0,350.0 500.0,350.0 500.0,700.0 1000.0,700.0" fill="#e8a086" stroke="#a2977a" stroke-width="0.6"/>
<polygon id="egy" points="0.0,0.0 0.0,350.0 500.0,350.0 500.0,0.0" fill="#e9dcbb" stroke="#a2977a" stroke-width="0.6"/>
<polygon id="eri" points="500.0,0.0 500.0,350.0 1000.0,350.0 1000.0,0.0" fill="#e9dcbb" stroke="#a2977a" stroke-width="0.6"/>
<polygon id="for" points="500.0,0.0 500.0,350.0 1000.0,350.0 1000.0,0.0" fill="#e9dcbb" stroke="#a2977a" stroke-width="0.6"/>
<polygon id="fus" points="500.0,0.0 500.0,350.0 1000.0,350.0 1000.0,0.0" fill="#e9dcbb" stroke="#a2977a" stroke-width="0.6"/>
<polygon id="hon" points="0.0,0.0 0.0,350.0 500.0,350.0 500.0,0.0" fill="#e8a086" stroke="#a2977a" stroke-width="0.6"/>
<polygon id="hyd" points="500.0,0.0 500.0,350.0 1000.0,350.0 1000.0,0.0" fill="#e9dcbb" stroke="#a2977a" stroke-width="0.6"/>
<polygon id="irk" points="0.0,0.0 0.0,350.0 500.0,350.0 500.0,0.0" fill="#e9dcbb" stroke="#a2977a" stroke-width="0.6"/>
<polygon id="jav" points="0.0,350.0 500.0,350.0 500.0,700.0 0.0,700.0" fill="#edc174" stroke="#a2977a" stroke-width="0.6"/>
<polygon id="kag" points="0.0,0.0 0.0,350.0 500.0,350.0 500.0,0.0" fill="#e9dcbb" stroke="#a2977a" stroke-width="0.6"/>
<polygon id="kam" points="500.0,0.0 500.0,350.0 1000.0,350.0 1000.0,0.0" fill="#e9dcbb" stroke="#a2977a" stroke-width="0.6"/>
<polygon id="kar" points="1000.0,350.0 500.0,350.0 500.0,700.0 1000.0,700.0" fill="#e9dcbb" stroke="#a2977a" stroke-width="0.6"/>
<polygon id="kir" points="0.0,350.0 500.0,350.0 500.0,700.0 0.0,700.0" fill="#e9dcbb" stroke="#a2977a" stroke-width="0.6"/>
<polygon id="kra" points="1000.0,350.0 500.0,350.0 500.0,700.0 1000.0,700.0" fill="#e9dcbb" stroke="#a2977a" stroke-width="0.6"/>
<polygon id="kyo" points="0.0,350.0 500.0,350.0 500.0,700.0 0.0,700.0" fill="#c39cb5" stroke="#a2977a" stroke-width="0.6"/>
<polygon id="kyu" points="0.0,0.0 0.0,350.0 500.0,350.0 500.0,0.0" fill="#c39cb5" stroke="#a2977a" stroke-width="0.6"/>
<polygon id="lan" points="0.0,350.0 500.0,350.0 500.0,700.0 0.0,700.0" fill="#e9dcbb" stroke="#a2977a" stroke-width="0.6"/>
<polygon id="luc" points="500.0,0.0 500.0,350.0 1000.0,350.0 1000.0,0.0" fill="#e9dcbb" stroke="#a2977a" stroke-width="0.6"/>
<polygon id="mac" points="0.0,350.0 500.0,350.0 500.0,700.0 0.0,700.0" fill="#98b5ba" stroke="#a2977a" stroke-width="0.6"/>
<polygon id="mad" points="500.0,0.0 500.0,350.0 1000.0,350.0 1000.0,0.0" fill="#e8a086" stroke="#a2977a" stroke-width="0.6"/>
<polygon id="mal" points="1000.0,350.0 500.0,350.0 500.0,700.0 1000.0,700.0" fill="#e9dcbb" stroke="#a2977a" stroke-width="0.6"/>
<polygon id="may" points="500.0,0.0 500.0,350.0 1000.0,350.0 1000.0,0.0" fill="#e9dcbb" stroke="#a2977a" stroke-width="0.6"/>
<polygon id="mec" points="0.0,0.0 0.0,350.0 500.0,350.0 500.0,0.0" fill="#e9dcbb" stroke="#a2977a" stroke-width="0.6"/>
<polygon id="mna" points="0.0,0.0 0.0,350.0 500.0,350.0 500.0,0.0" fill="#e9dcbb" stroke="#a2977a" stroke-width="0.6"/>
<polygon id="mon" points="1000.0,350.0 500.0,350.0 500.0,700.0 1000.0,700.0" fill="#e9dcbb" stroke="#a2977a" stroke-width="0.6"/>
<polygon id="mos" points="0.0,350.0 500.0,350.0 500.0,700.0 0.0,700.0" fill="#92cfae" stroke="#a2977a" stroke-width="0.6"/>
<polygon id="mys" points="0.0,350.0 500.0,350.0 500.0,700.0 0.0,700.0" fill="#e9dcbb" stroke="#a2977a" stroke-width="0.6"/>
<polygon id="nag" points="500.0,0.0 500.0,350.0 1000.0,350.0 1000.0,0.0" fill="#e9dcbb" stroke="#a2977a" stroke-width="0.6"/>
<polygon id="nan" points="0.0,350.0 500.0,350.0 500.0,700.0 0.0,700.0" fill="#e9dcbb" stroke="#a2977a" stroke-width="0.6"/>
<polygon id="nep" points="0.0,350.0 500.0,350.0 500.0,700.0 0.0,700.0" fill="#e9dcbb" stroke="#a2977a" stroke-width="0.6"/>
<polygon id="new" points="0.0,0.0 0.0,350.0 500.0,350.0 500.0,0.0" fill="#e9dcbb" stroke="#a2977a" stroke-width="0.6"/>
<polygon id="ode" points="1000.0,350.0 500.0,350.0 500.0,700.0 1000.0,700.0" fill="#92cfae" stroke="#a2977a" stroke-width="0.6"/>
<polygon id="oma" points="1000.0,350.0 500.0,350.0 500.0,700.0 1000.0,700.0" fill="#e9dcbb" stroke="#a2977a" stroke-width="0.6"/>
<polygon id="oms" points="0.0,350.0 500.0,350.0 500.0,700.0 0.0,700.0" fill="#92cfae" stroke="#a2977a" stroke-width="0.6"/>
<polygon id="ore" points="0.0,0.0 0.0,350.0 500.0,350.0 500.0,0.0" fill="#e9dcbb" stroke="#a2977a" stroke-width="0.6"/>
<polygon id="ota" points="0.0,350.0 500.0,350.0 500.0,700.0 0.0,700.0" fill="#c39cb5" stroke="#a2977a" stroke-width="0.6"/>
<polygon id="pek" points="0.0,0.0 0.0,350.0 500.0,350.0 500.0,0.0" fill="#98b5ba" stroke="#a2977a" stroke-width="0.6"/>
<polygon id="per" points="0.0,350.0 500.0,350.0 500.0,700.0 0.0,700.0" fill="#e9dcbb" stroke="#a2977a" stroke-width="0.6"/>
<polygon id="por" points="500.0,0.0 500.0,350.0 1000.0,350.0 1000.0,0.0" fill="#92cfae" stroke="#a2977a" stroke-width="0.6"/>
<polygon id="prm" points="0.0,350.0 500.0,350.0 500.0,700.0 0.0,700.0" fill="#e9dcbb" stroke="#a2977a" stroke-width="0.6"/>
<polygon id="pun" points="0.0,0.0 0.0,350.0 500.0,350.0 500.0,0.0" fill="#e9dcbb" stroke="#a2977a" stroke-width="0.6"/>
<polygon id="raj" points="1000.0,350.0 500.0,350.0 500.0,700.0 1000.0,700.0" fill="#e9dcbb" stroke="#a2977a" stroke-width="0.6"/>
<polygon id="ran" points="0.0,350.0 500.0,350.0 500.0,700.0 0.0,700.0" fill="#e9dcbb" stroke="#a2977a" stroke-width="0.6"/>
<polygon id="rum" points="0.0,0.0 0.0,350.0 500.0,350.0 500.0,0.0" fill="#e9dcbb" stroke="#a2977a" stroke-width="0.6"/>
<polygon id="sak" points="0.0,0.0 0.0,350.0 500.0,350.0 500.0,0.0" fill="#e9dcbb" stroke="#a2977a" stroke-width="0.6"/>
<polygon id="sar" points="1000.0,350.0 500.0,350.0 500.0,700.0 1000.0,700.0" fill="#e9dcbb" stroke="#a2977a" stroke-width="0.6"/>
<polygon id="sem" points="0.0,0.0 0.0,350.0 500.0,350.0 500.0,0.0" fill="#e9dcbb" stroke="#a2977a" stroke-width="0.6"/>
<polygon id="seo" points="500.0,0.0 500.0,350.0 1000.0,350.0 1000.0,0.0" fill="#e9dcbb" stroke="#a2977a" stroke-width="0.6"/>
<polygon id="sha" points="0.0,350.0 500.0,350.0 500.0,700.0 0.0,700.0" fill="#98b5ba" stroke="#a2977a" stroke-width="0.6"/>
<polygon id="shi" points="0.0,0.0 0.0,350.0 500.0,350.0 500.0,0.0" fill="#e9dcbb" stroke="#a2977a" stroke-width="0.6"/>
<polygon id="sia" points="0.0,350.0 500.0,350.0 500.0,700.0 0.0,700.0" fill="#e9dcbb" stroke="#a2977a" stroke-width="0.6"/>
<polygon id="sik" points="0.0,350.0 500.0,350.0 500.0,700.0 0.0,700.0" fill="#98b5ba" stroke="#a2977a" stroke-width="0.6"/>
<polygon id="sin" points="500.0,0.0 500.0,350.0 1000.0,350.0 1000.0,0.0" fill="#e8a086" stroke="#a2977a" stroke-width="0.6"/>
<polygon id="som" points="500.0,0.0 500.0,350.0 1000.0,350.0 1000.0,0.0" fill="#e9dcbb" stroke="#a2977a" stroke-width="0.6"/>
<polygon id="sud" points="500.0,0.0 500.0,350.0 1000.0,350.0 1000.0,0.0" fill="#e9dcbb" stroke="#a2977a" stroke-width="0.6"/>
<polygon id="sum" points="0.0,350.0 500.0,350.0 500.0,700.0 0.0,700.0" fill="#edc174" stroke="#a2977a" stroke-width="0.6"/>
<polygon id="syr" points="500.0,0.0 500.0,350.0 1000.0,350.0 1000.0,0.0" fill="#e9dcbb" stroke="#a2977a" stroke-width="0.6"/>
<polygon id="tab" points="1000.0,350.0 500.0,350.0 500.0,700.0 1000.0,700.0" fill="#e9dcbb" stroke="#a2977a" stroke-width="0.6"/>
<polygon id="tas" points="1000.0,350.0 500.0,350.0 500.0,700.0 1000.0,700.0" fill="#e9dcbb" stroke="#a2977a" stroke-width="0.6"/>
<polygon id="tib" points="0.0,0.0 0.0,350.0 500.0,350.0 500.0,0.0" fill="#e9dcbb" stroke="#a2977a" stroke-width="0.6"/>
<polygon id="tok" points="1000.0,350.0 500.0,350.0 500.0,700.0 1000.0,700.0" fill="#c39cb5" stroke="#a2977a" stroke-width="0.6"/>
<polygon id="ton" points="0.0,350.0 500.0,350.0 500.0,700.0 0.0,700.0" fill="#98c995" stroke="#a2977a" stroke-width="0.6"/>
<polygon id="uru" points="0.0,350.0 500.0,350.0 500.0,700.0 0.0,700.0" fill="#e9dcbb" stroke="#a2977a" stroke-width="0.6"/>
<polygon id="vla" points="0.0,0.0 0.0,350.0 500.0,350.0 500.0,0.0" fill="#92cfae" stroke="#a2977a" stroke-width="0.6"/>
<polygon id="yun" points="500.0,0.0 500.0,350.0 1000.0,350.0 1000.0,0.0" fill="#e9dcbb" stroke="#a2977a" stroke-width="0.6"/>
</g>
<g id="coastline" style="pointer-events:none;fill:none;stroke-linecap:round"><path d="M1000.0,350.0L1000.0,0.0 M1000.0,0.0L500.0,0.0 M0.0,0.0L0.0,350.0 M500.0,0.0L0.0,0.0 M500.0,700.0L1000.0,700.0 M1000.0,700.0L1000.0,350.0 M1000.0,350.0L1000.0,0.0 M1000.0,0.0L500.0,0.0 M0.0,0.0L0.0,350.0 M500.0,0.0L0.0,0.0 M0.0,0.0L0.0,350.0 M500.0,0.0L0.0,0.0 M500.0,700.0L1000.0,700.0 M1000.0,700.0L1000.0,350.0 M500.0,700.0L0.0,700.0 M0.0,700.0L0.0,350.0 M1000.0,350.0L1000.0,0.0 M1000.0,0.0L500.0,0.0 M0.0,0.0L0.0,350.0 M500.0,0.0L0.0,0.0 M1000.0,350.0L1000.0,0.0 M1000.0,0.0L500.0,0.0 M0.0,0.0L0.0,350.0 M500.0,0.0L0.0,0.0 M500.0,700.0L1000.0,700.0 M1000.0,700.0L1000.0,350.0 M500.0,700.0L1000.0,700.0 M1000.0,700.0L1000.0,350.0 M500.0,700.0L1000.0,700.0 M1000.0,700.0L1000.0,350.0 M500.0,700.0L1000.0,700.0 M1000.0,700.0L1000.0,350.0 M1000.0,350.0L1000.0,0.0 M1000.0,0.0L500.0,0.0 M0.0,0.0L0.0,350.0 M500.0,0.0L0.0,0.0 M0.0,0.0L0.0,350.0 M500.0,0.0L0.0,0.0 M0.0,0.0L0.0,350.0 M500.0,0.0L0.0,0.0 M1000.0,350.0L1000.0,0.0 M1000.0,0.0L500.0,0.0 M0.0,0.0L0.0,350.0 M500.0,0.0L0.0,0.0 M500.0,700.0L0.0,700.0 M0.0,700.0L0.0,350.0 M500.0,700.0L1000.0,700.0 M1000.0,700.0L1000.0,350.0 M0.0,0.0L0.0,350.0 M500.0,0.0L0.0,0.0 M500.0,700.0L1000.0,700.0 M1000.0,700.0L1000.0,350.0 M500.0,700.0L1000.0,700.0 M1000.0,700.0L1000.0,350.0 M500.0,700.0L1000.0,700.0 M1000.0,700.0L1000.0,350.0 M0.0,0.0L0.0,350.0 M500.0,0.0L0.0,0.0 M1000.0,350.0L1000.0,0.0 M1000.0,0.0L500.0,0.0 M1000.0,350.0L1000.0,0.0 M1000.0,0.0L500.0,0.0 M1000.0,350.0L1000.0,0.0 M1000.0,0.0L500.0,0.0 M0.0,0.0L0.0,350.0 M500.0,0.0L0.0,0.0 M1000.0,350.0L1000.0,0.0 M1000.0,0.0L500.0,0.0 M0.0,0.0L0.0,350.0 M500.0,0.0L0.0,0.0 M500.0,700.0L0.0,700.0 M0.0,700.0L0.0,350.0 M0.0,0.0L0.0,350.0 M500.0,0.0L0.0,0.0 M1000.0,350.0L1000.0,0.0 M1000.0,0.0L500.0,0.0 M500.0,700.0L1000.0,700.0 M1000.0,700.0L1000.0,350.0 M500.0,700.0L0.0,700.0 M0.0,700.0L0.0,350.0 M500.0,700.0L1000.0,700.0 M1000.0,700.0L1000.0,350.0 M500.0,700.0L0.0,700.0 M0.0,700.0L0.0,350.0 M0.0,0.0L0.0,350.0 M500.0,0.0L0.0,0.0 M500.0,700.0L0.0,700.0 M0.0,700.0L0.0,350.0 M1000.0,350.0L1000.0,0.0 M1000.0,0.0L500.0,0.0 M500.0,700.0L0.0,700.0 M0.0,700.0L0.0,350.0 M1000.0,350.0L1000.0,0.0 M1000.0,0.0L500.0,0.0 M500.0,700.0L1000.0,700.0 M1000.0,700.0L1000.0,350.0 M1000.0,350.0L1000.0,0.0 M1000.0,0.0L500.0,0.0 M0.0,0.0L0.0,350.0 M500.0,0.0L0.0,0.0 M0.0,0.0L0.0,350.0 M500.0,0.0L0.0,0.0 M500.0,700.0L1000.0,700.0 M1000.0,700.0L1000.0,350.0 M500.0,700.0L0.0,700.0 M0.0,700.0L0.0,350.0 M500.0,700.0L0.0,700.0 M0.0,700.0L0.0,350.0 M1000.0,350.0L1000.0,0.0 M1000.0,0.0L500.0,0.0 M500.0,700.0L0.0,700.0 M0.0,700.0L0.0,350.0 M500.0,700.0L0.0,700.0 M0.0,700.0L0.0,350.0 M0.0,0.0L0.0,350.0 M500.0,0.0L0.0,0.0 M500.0,700.0L1000.0,700.0 M1000.0,700.0L1000.0,350.0 M500.0,700.0L1000.0,700.0 M1000.0,700.0L1000.0,350.0 M500.0,700.0L0.0,700.0 M0.0,700.0L0.0,350.0 M0.0,0.0L0.0,350.0 M500.0,0.0L0.0,0.0 M500.0,700.0L0.0,700.0 M0.0,700.0L0.0,350.0 M0.0,0.0L0.0,350.0 M500.0,0.0L0.0,0.0 M500.0,700.0L0.0,700.0 M0.0,700.0L0.0,350.0 M1000.0,350.0L1000.0,0.0 M1000.0,0.0L500.0,0.0 M500.0,700.0L0.0,700.0 M0.0,700.0L0.0,350.0 M0.0,0.0L0.0,350.0 M500.0,0.0L0.0,0.0 M500.0,700.0L1000.0,700.0 M1000.0,700.0L1000.0,350.0 M500.0,700.0L0.0,700.0 M0.0,700.0L0.0,350.0 M0.0,0.0L0.0,350.0 M500.0,0.0L0.0,0.0 M0.0,0.0L0.0,350.0 M500.0,0.0L0.0,0.0 M500.0,700.0L1000.0,700.0 M1000.0,700.0L1000.0,350.0 M0.0,0.0L0.0,350.0 M500.0,0.0L0.0,0.0 M1000.0,350.0L1000.0,0.0 M1000.0,0.0L500.0,0.0 M500.0,700.0L0.0,700.0 M0.0,700.0L0.0,350.0 M0.0,0.0L0.0,350.0 M500.0,0.0L0.0,0.0 M500.0,700.0L0.0,700.0 M0.0,700.0L0.0,350.0 M500.0,700.0L0.0,700.0 M0.0,700.0L0.0,350.0 M1000.0,350.0L1000.0,0.0 M1000.0,0.0L500.0,0.0 M1000.0,350.0L1000.0,0.0 M1000.0,0.0L500.0,0.0 M1000.0,350.0L1000.0,0.0 M1000.0,0.0L500.0,0.0 M500.0,700.0L0.0,700.0 M0.0,700.0L0.0,350.0 M1000.0,350.0L1000.0,0.0 M1000.0,0.0L500.0,0.0 M500.0,700.0L1000.0,700.0 M1000.0,700.0L1000.0,350.0 M500.0,700.0L1000.0,700.0 M1000.0,700.0L1000.0,350.0 M0.0,0.0L0.0,350.0 M500.0,0.0L0.0,0.0 M500.0,700.0L1000.0,700.0 M1000.0,700.0L1000.0,350.0 M500.0,700.0L0.0,700.0 M0.0,700.0L0.0,350.0 M500.0,700.0L0.0,700.0 M0.0,700.0L0.0,350.0 M0.0,0.0L0.0,350.0 M500.0,0.0L0.0,0.0 M1000.0,350.0L1000.0,0.0 M1000.0,0.0L500.0,0.0" stroke="#f4ecd6" stroke-width="3.2" opacity="0.75"/><path d="M1000.0,350.0L1000.0,0.0 M1000.0,0.0L500.0,0.0 M0.0,0.0L0.0,350.0 M500.0,0.0L0.0,0.0 M500.0,700.0L1000.0,700.0 M1000.0,700.0L1000.0,350.0 M1000.0,350.0L1000.0,0.0 M1000.0,0.0L500.0,0.0 M0.0,0.0L0.0,350.0 M500.0,0.0L0.0,0.0 M0.0,0.0L0.0,350.0 M500.0,0.0L0.0,0.0 M500.0,700.0L1000.0,700.0 M1000.0,700.0L1000.0,350.0 M500.0,700.0L0.0,700.0 M0.0,700.0L0.0,350.0 M1000.0,350.0L1000.0,0.0 M1000.0,0.0L500.0,0.0 M0.0,0.0L0.0,350.0 M500.0,0.0L0.0,0.0 M1000.0,350.0L1000.0,0.0 M1000.0,0.0L500.0,0.0 M0.0,0.0L0.0,350.0 M500.0,0.0L0.0,0.0 M500.0,700.0L1000.0,700.0 M1000.0,700.0L1000.0,350.0 M500.0,700.0L1000.0,700.0 M1000.0,700.0L1000.0,350.0 M500.0,700.0L1000.0,700.0 M1000.0,700.0L1000.0,350.0 M500.0,700.0L1000.0,700.0 M1000.0,700.0L1000.0,350.0 M1000.0,350.0L1000.0,0.0 M1000.0,0.0L500.0,0.0 M0.0,0.0L0.0,350.0 M500.0,0.0L0.0,0.0 M0.0,0.0L0.0,350.0 M500.0,0.0L0.0,0.0 M0.0,0.0L0.0,350.0 M500.0,0.0L0.0,0.0 M1000.0,350.0L1000.0,0.0 M1000.0,0.0L500.0,0.0 M0.0,0.0L0.0,350.0 M500.0,0.0L0.0,0.0 M500.0,700.0L0.0,700.0 M0.0,700.0L0.0,350.0 M500.0,700.0L1000.0,700.0 M1000.0,700.0L1000.0,350.0 M0.0,0.0L0.0,350.0 M500.0,0.0L0.0,0.0 M500.0,700.0L1000.0,700.0 M1000.0,700.0L1000.0,350.0 M500.0,700.0L1000.0,700.0 M1000.0,700.0L1000.0,350.0 M500.0,700.0L1000.0,700.0 M1000.0,700.0L1000.0,350.0 M0.0,0.0L0.0,350.0 M500.0,0.0L0.0,0.0 M1000.0,350.0L1000.0,0.0 M1000.0,0.0L500.0,0.0 M1000.0,350.0L1000.0,0.0 M1000.0,0.0L500.0,0.0 M1000.0,350.0L1000.0,0.0 M1000.0,0.0L500.0,0.0 M0.0,0.0L0.0,350.0 M500.0,0.0L0.0,0.0 M1000.0,350.0L1000.0,0.0 M1000.0,0.0L500.0,0.0 M0.0,0.0L0.0,350.0 M500.0,0.0L0.0,0.0 M500.0,700.0L0.0,700.0 M0.0,700.0L0.0,350.0 M0.0,0.0L0.0,350.0 M500.0,0.0L0.0,0.0 M1000.0,350.0L1000.0,0.0 M1000.0,0.0L500.0,0.0 M500.0,700.0L1000.0,700.0 M1000.0,700.0L1000.0,350.0 M500.0,700.0L0.0,700.0 M0.0,700.0L0.0,350.0 M500.0,700.0L1000.0,700.0 M1000.0,700.0L1000.0,350.0 M500.0,700.0L0.0,700.0 M0.0,700.0L0.0,350.0 M0.0,0.0L0.0,350.0 M500.0,0.0L0.0,0.0 M500.0,700.0L0.0,700.0 M0.0,700.0L0.0,350.0 M1000.0,350.0L1000.0,0.0 M1000.0,0.0L500.0,0.0 M500.0,700.0L0.0,700.0 M0.0,700.0L0.0,350.0 M1000.0,350.0L1000.0,0.0 M1000.0,0.0L500.0,0.0 M500.0,700.0L1000.0,700.0 M1000.0,700.0L1000.0,350.0 M1000.0,350.0L1000.0,0.0 M1000.0,0.0L500.0,0.0 M0.0,0.0L0.0,350.0 M500.0,0.0L0.0,0.0 M0.0,0.0L0.0,350.0 M500.0,0.0L0.0,0.0 M500.0,700.0L1000.0,700.0 M1000.0,700.0L1000.0,350.0 M500.0,700.0L0.0,700.0 M0.0,700.0L0.0,350.0 M500.0,700.0L0.0,700.0 M0.0,700.0L0.0,350.0 M1000.0,350.0L1000.0,0.0 M1000.0,0.0L500.0,0.0 M500.0,700.0L0.0,700.0 M0.0,700.0L0.0,350.0 M500.0,700.0L0.0,700.0 M0.0,700.0L0.0,350.0 M0.0,0.0L0.0,350.0 M500.0,0.0L0.0,0.0 M500.0,700.0L1000.0,700.0 M1000.0,700.0L1000.0,350.0 M500.0,700.0L1000.0,700.0 M1000.0,700.0L1000.0,350.0 M500.0,700.0L0.0,700.0 M0.0,700.0L0.0,350.0 M0.0,0.0L0.0,350.0 M500.0,0.0L0.0,0.0 M500.0,700.0L0.0,700.0 M0.0,700.0L0.0,350.0 M0.0,0.0L0.0,350.0 M500.0,0.0L0.0,0.0 M500.0,700.0L0.0,700.0 M0.0,700.0L0.0,350.0 M1000.0,350.0L1000.0,0.0 M1000.0,0.0L500.0,0.0 M500.0,700.0L0.0,700.0 M0.0,700.0L0.0,350.0 M0.0,0.0L0.0,350.0 M500.0,0.0L0.0,0.0 M500.0,700.0L1000.0,700.0 M1000.0,700.0L1000.0,350.0 M500.0,700.0L0.0,700.0 M0.0,700.0L0.0,350.0 M0.0,0.0L0.0,350.0 M500.0,0.0L0.0,0.0 M0.0,0.0L0.0,350.0 M500.0,0.0L0.0,0.0 M500.0,700.0L1000.0,700.0 M1000.0,700.0L1000.0,350.0 M0.0,0.0L0.0,350.0 M500.0,0.0L0.0,0.0 M1000.0,350.0L1000.0,0.0 M1000.0,0.0L500.0,0.0 M500.0,700.0L0.0,700.0 M0.0,700.0L0.0,350.0 M0.0,0.0L0.0,350.0 M500.0,0.0L0.0,0.0 M500.0,700.0L0.0,700.0 M0.0,700.0L0.0,350.0 M500.0,700.0L0.0,700.0 M0.0,700.0L0.0,350.0 M1000.0,350.0L1000.0,0.0 M1000.0,0.0L500.0,0.0 M1000.0,350.0L1000.0,0.0 M1000.0,0.0L500.0,0.0 M1000.0,350.0L1000.0,0.0 M1000.0,0.0L500.0,0.0 M500.0,700.0L0.0,700.0 M0.0,700.0L0.0,350.0 M1000.0,350.0L1000.0,0.0 M1000.0,0.0L500.0,0.0 M500.0,700.0L1000.0,700.0 M1000.0,700.0L1000.0,350.0 M500.0,700.0L1000.0,700.0 M1000.0,700.0L1000.0,350.0 M0.0,0.0L0.0,350.0 M500.0,0.0L0.0,0.0 M500.0,700.0L1000.0,700.0 M1000.0,700.0L1000.0,350.0 M500.0,700.0L0.0,700.0 M0.0,700.0L0.0,350.0 M500.0,700.0L0.0,700.0 M0.0,700.0L0.0,350.0 M0.0,0.0L0.0,350.0 M500.0,0.0L0.0,0.0 M1000.0,350.0L1000.0,0.0 M1000.0,0.0L500.0,0.0" stroke="#4c4433" stroke-width="1.3"/></g>
</svg>
