<?xml version="1.0" standalone="no"?>
<svg xmlns="http://www.w3.org/2000/svg" viewBox="0 0 1000 700" width="1000" height="700">
<rect x="0" y="0" width="1000" height="700" fill="#a9c9de"/>
<g id="provinces">
<polygon id="adr" points="553.3,440.1 532.0,428.2 532.0,423.5 521.3,416.4 515.4,417.6 504.7,411.6 510.7,402.1 483.4,395.0 477.5,389.1 468.0,372.5 468.0,366.6 460.9,354.7 450.2,346.4 444.3,345.3 444.3,325.1 439.6,320.4 440.7,310.9 453.8,308.5 457.3,301.4 470.4,308.5 462.1,308.5 463.3,319.2 466.8,325.1 470.4,325.1 473.9,315.6 477.5,314.4 487.0,316.8 489.3,323.9 485.8,332.2 498.8,346.4 497.6,353.6 511.9,364.2 515.4,363.0 537.9,371.3 537.9,378.4 560.4,389.1 558.1,393.9 561.6,398.6 571.1,402.1 575.9,408.1 572.3,410.4 573.5,436.5 571.1,440.1" fill="#a9c9de" stroke="#8fb2c9" stroke-width="0.6"/>
<polygon id="aeg" points="637.5,531.3 642.2,531.3 633.9,510.0 639.9,510.0 643.4,514.7 647.0,507.6 639.9,500.5 645.8,495.8 656.4,505.3 657.6,498.1 651.7,487.5 643.4,485.1 642.2,479.2 632.7,474.4 638.7,465.0 639.9,457.9 630.4,446.0 631.6,437.7 636.3,437.7 648.1,451.9 647.0,446.0 652.9,449.6 655.3,442.4 664.7,444.8 661.2,438.9 654.1,436.5 654.1,429.4 676.6,423.5 682.5,427.0 693.2,428.2 694.4,433.0 700.3,434.1 693.2,441.3 699.1,441.3 718.1,427.0 752.4,427.0 753.6,430.6 744.1,431.8 752.4,437.7 740.6,441.3 712.1,441.3 695.6,448.4 695.6,460.2 701.5,457.9 706.2,460.2 706.2,467.3 712.1,475.6 706.2,476.8 706.2,482.7 699.1,480.4 697.9,488.7 701.5,492.2 712.1,495.8 712.1,504.1 718.1,511.2 716.9,517.1 732.3,515.9 728.7,526.6 700.3,555.0 692.0,557.4 687.3,553.9 663.6,550.3 658.8,552.7 654.1,547.9" fill="#a9c9de" stroke="#8fb2c9" stroke-width="0.6"/>
<polygon id="atl" points="37.8,230.3 94.7,230.3 94.7,359.5 88.7,360.7 81.6,355.9 73.3,354.7 65.0,359.5 66.2,363.0 61.5,366.6 53.2,366.6 46.1,372.5 52.0,382.0 56.7,384.4 54.4,395.0 57.9,412.8 57.9,435.3 53.2,442.4 54.4,449.6 44.9,466.1 49.6,487.5 53.2,483.9 56.7,506.4 50.8,521.9 61.5,517.1 73.3,521.9 82.8,515.9 87.6,515.9 95.9,520.7 104.1,538.4 112.4,538.4 112.4,544.4 103.0,549.1 101.8,561.0 87.6,588.2 68.6,596.5 53.2,607.2 42.5,622.6 37.8,623.8" fill="#a9c9de" stroke="#8fb2c9" stroke-width="0.6"/>
<polygon id="bal" points="112.4,538.4 119.6,531.3 126.7,530.1 130.2,525.4 158.7,524.2 163.4,526.6 167.0,520.7 176.4,523.0 178.8,514.7 183.6,508.8 197.8,506.4 197.8,498.1 203.7,483.9 213.2,480.4 215.6,476.8 209.6,472.1 206.1,463.8 206.1,456.7 223.9,433.0 228.6,433.0 232.1,429.4 228.6,428.2 236.9,418.7 249.9,415.2 261.8,406.9 273.6,402.1 375.6,402.1 376.7,410.4 386.2,415.2 374.4,425.9 363.7,427.0 368.4,436.5 370.8,450.7 368.4,462.6 369.6,517.1 361.3,520.7 351.9,514.7 344.7,514.7 342.4,518.3 328.1,517.1 325.8,521.9 317.5,526.6 303.3,520.7 289.0,520.7 279.6,525.4 247.6,529.0 229.8,533.7 217.9,539.6 214.4,545.6 204.9,543.2 175.3,561.0 167.0,562.1 158.7,556.2 123.1,556.2 112.4,544.4 235.7,473.3 242.8,467.3 244.0,472.1 239.3,475.6 255.9,460.2 259.4,451.9 270.1,448.4 272.4,453.1 276.0,451.9 277.2,456.7 267.7,465.0 264.1,460.2 283.1,449.6 284.3,443.6 292.6,450.7" fill="#a9c9de" stroke="#8fb2c9" stroke-width="0.6"/>
<polygon id="bri" points="37.8,230.3 126.7,230.3 125.5,227.9 127.9,225.6 136.1,222.0 144.4,222.0 150.4,216.1 157.5,216.1 158.7,219.6 164.6,223.2 167.0,220.8 177.6,220.8 181.2,224.4 187.1,222.0 184.7,218.4 184.7,206.6 178.8,191.2 151.6,166.3 144.4,168.7 143.3,175.8 136.1,180.5 127.9,175.8 120.7,177.0 112.4,185.3 101.8,185.3 103.0,181.7 111.3,179.3 116.0,173.4 121.9,171.0 126.7,154.4 135.0,148.5 148.0,148.5 155.1,141.4 152.7,137.9 146.8,142.6 140.9,142.6 135.0,137.9 130.2,139.0 123.1,131.9 114.8,133.1 111.3,130.7 117.2,124.8 135.0,115.3 130.2,109.4 131.4,98.7 123.1,98.7 127.9,89.3 132.6,89.3 138.5,85.7 148.0,85.7 152.7,79.8 150.4,69.1 155.1,66.7 145.6,56.1 143.3,50.1 143.3,43.0 146.8,37.1 140.9,35.9 135.0,39.5 121.9,41.9 114.8,35.9 114.8,30.0 88.7,30.0 95.9,45.4 86.4,69.1 91.1,77.4 86.4,86.9 92.3,94.0 89.9,108.2 81.6,118.9 65.0,118.9 42.5,135.5 37.8,136.7" fill="#a9c9de" stroke="#8fb2c9" stroke-width="0.6"/>
<polygon id="can" points="201.3,316.8 200.1,318.0 194.2,310.9 191.9,310.9 189.5,331.0 193.0,333.4 189.5,335.8 187.1,359.5 167.0,364.2 163.4,360.7 153.9,363.0 149.2,359.5 130.2,361.9 110.1,358.3 94.7,358.3 94.7,230.3 126.7,230.3 133.8,233.9 127.9,235.0 131.4,237.4 127.9,238.6 132.6,246.9 140.9,244.5 148.0,249.3 165.8,255.2 174.1,261.1 176.4,267.0 171.7,268.2 176.4,274.1 178.8,284.8 187.1,287.2 191.9,295.5 191.9,307.3 199.0,310.9" fill="#a9c9de" stroke="#8fb2c9" stroke-width="0.6"/>
<polygon id="cyp" points="728.7,526.6 737.0,523.0 741.8,526.6 747.7,524.2 751.3,534.9 764.3,537.3 766.7,533.7 772.6,534.9 775.0,532.5 777.3,520.7 791.6,521.9 799.9,526.6 811.7,538.4 827.1,539.6 844.9,530.1 849.6,523.0 869.8,529.0 874.5,523.0 880.4,525.4 878.1,534.9 871.0,536.1 869.8,539.6 874.5,544.4 871.0,551.5 875.7,557.4 871.0,564.5 875.7,571.6 868.6,578.7 867.4,596.5 862.7,606.0 854.4,614.3 848.4,639.2 835.4,649.9 830.7,647.5 808.1,646.3 804.6,649.9 799.9,647.5 798.7,640.4 782.1,638.0 765.5,646.3 760.7,646.3 752.4,653.4 744.1,653.4 697.9,641.6 696.7,638.0 680.1,638.0 673.0,628.5 673.0,564.5 694.4,564.5 701.5,559.8 700.3,555.0 849.6,546.7 839.0,556.2 839.0,561.0 830.7,569.3 820.0,572.8 809.3,568.1 811.7,558.6 820.0,555.0 837.8,552.7 846.1,546.7" fill="#a9c9de" stroke="#8fb2c9" stroke-width="0.6"/>
<polygon id="eux" points="961.0,419.9 940.9,421.1 931.4,418.7 923.1,425.9 913.6,425.9 906.5,421.1 879.3,414.0 875.7,405.7 866.2,406.9 860.3,398.6 831.9,398.6 825.9,396.2 792.7,415.2 789.2,419.9 750.1,417.6 743.0,410.4 731.1,406.9 731.1,402.1 724.0,386.7 727.6,380.8 727.6,369.0 731.1,364.2 739.4,364.2 741.8,339.3 745.3,332.2 751.3,329.9 759.6,331.0 760.7,318.0 758.4,303.8 764.3,303.8 779.7,290.7 778.5,284.8 792.7,278.9 805.8,282.4 797.5,286.0 803.4,290.7 828.3,295.5 829.5,299.0 821.2,301.4 818.8,306.1 810.5,310.9 810.5,314.4 818.8,314.4 829.5,322.7 825.9,334.6 835.4,340.5 841.3,340.5 850.8,329.9 857.9,328.7 863.9,323.9 880.4,323.9 886.4,309.7 882.8,307.3 876.9,312.1 866.2,314.4 846.1,296.7 867.4,286.0 872.1,278.9 888.7,277.7 924.3,261.1 926.7,263.5 937.3,261.1 936.1,269.4 905.3,277.7 920.7,290.7 920.7,294.3 912.4,297.9 905.3,307.3 907.7,313.3 904.1,315.6 897.0,314.4 893.5,319.2 903.0,329.9 907.7,328.7 908.9,334.6 925.5,342.9 961.0,373.7" fill="#a9c9de" stroke="#8fb2c9" stroke-width="0.6"/>
<polygon id="ger" points="181.2,30.0 185.9,44.2 196.6,46.6 206.1,65.6 209.6,81.0 215.6,89.3 215.6,94.0 210.8,98.7 213.2,101.1 217.9,99.9 220.3,96.4 229.8,96.4 238.1,101.1 240.4,117.7 232.1,133.1 219.1,141.4 223.9,143.8 234.5,142.6 234.5,148.5 231.0,153.3 258.2,153.3 277.2,142.6 285.5,141.4 281.9,137.9 286.7,137.9 284.3,135.5 290.2,120.1 297.3,116.5 300.9,97.6 308.0,103.5 304.4,107.0 306.8,118.9 315.1,118.9 321.0,107.0 317.5,102.3 311.6,101.1 310.4,91.6 321.0,84.5 336.4,82.1 343.6,88.1 345.9,86.9 342.4,82.1 345.9,76.2 360.1,72.7 363.7,79.8 370.8,79.8 369.6,72.7 372.0,67.9 383.9,69.1 381.5,66.7 370.8,66.7 373.2,51.3 376.7,49.0 370.8,30.0" fill="#a9c9de" stroke="#8fb2c9" stroke-width="0.6"/>
<polygon id="int" points="673.0,628.5 654.1,627.3 637.5,621.4 641.0,617.9 639.9,615.5 631.6,613.1 625.6,608.4 611.4,608.4 588.9,622.6 581.8,635.6 583.0,651.0 566.4,662.9 559.3,661.7 541.5,651.0 535.6,651.0 502.4,640.4 496.4,632.1 497.6,623.8 495.3,621.4 483.4,619.0 475.1,613.1 446.7,611.9 436.0,603.6 424.1,602.4 419.4,594.1 405.2,594.1 402.8,590.6 402.8,581.1 418.2,563.3 419.4,555.0 414.7,545.6 408.7,539.6 421.8,520.7 421.8,517.1 436.0,502.9 447.9,510.0 466.8,515.9 479.9,527.8 485.8,529.0 487.0,524.2 617.3,524.2 618.5,518.3 622.1,519.5 626.8,531.3 630.4,521.9 654.1,547.9 645.8,547.9 647.0,555.0 673.0,564.5" fill="#a9c9de" stroke="#8fb2c9" stroke-width="0.6"/>
<polygon id="ion" points="571.1,440.1 580.6,450.7 575.9,454.3 577.0,456.7 583.0,455.5 591.3,468.5 591.3,473.3 596.0,475.6 601.9,485.1 601.9,488.7 624.4,485.1 636.3,494.6 623.3,489.9 607.9,489.9 600.7,495.8 609.0,508.8 609.0,514.7 615.0,524.2 487.0,524.2 485.8,506.4 489.3,493.4 498.8,493.4 500.0,497.0 507.1,497.0 510.7,489.9 515.4,487.5 519.0,475.6 528.4,474.4 527.3,462.6 519.0,457.9 520.1,447.2 524.9,442.4 528.4,442.4 542.7,448.4 542.7,453.1 548.6,456.7 553.3,456.7 556.9,446.0 553.3,440.1" fill="#a9c9de" stroke="#8fb2c9" stroke-width="0.6"/>
<polygon id="lig" points="273.6,402.1 274.8,399.8 271.3,396.2 267.7,380.8 274.8,370.1 285.5,363.0 299.7,363.0 303.3,365.4 306.8,363.0 316.3,366.6 319.9,371.3 327.0,372.5 335.3,369.0 341.2,358.3 349.5,357.1 353.0,352.4 359.0,352.4 367.3,346.4 368.4,341.7 372.0,339.3 380.3,340.5 401.6,350.0 401.6,359.5 406.4,374.9 412.3,380.8 417.0,391.5 426.5,393.9 427.7,402.1 387.4,402.1 387.4,373.7 380.3,385.6 375.6,385.6 372.0,390.3 375.6,402.1" fill="#a9c9de" stroke="#8fb2c9" stroke-width="0.6"/>
<polygon id="sax" points="231.0,153.3 214.4,162.7 170.5,165.1 167.0,171.0 158.7,171.0 178.8,191.2 190.7,191.2 193.0,193.6 190.7,198.3 208.4,203.0 217.9,200.7 217.9,191.2 220.3,188.8 240.4,182.9 245.2,171.0 245.2,156.8 248.7,153.3" fill="#a9c9de" stroke="#8fb2c9" stroke-width="0.6"/>
<polygon id="tyr" points="427.7,402.1 446.7,415.2 458.5,417.6 458.5,421.1 477.5,437.7 481.0,437.7 487.0,442.4 491.7,449.6 495.3,449.6 507.1,479.2 498.8,488.7 498.8,493.4 489.3,493.4 489.3,489.9 471.6,494.6 459.7,494.6 450.2,491.0 444.3,493.4 441.9,492.2 436.0,498.1 436.0,502.9 421.8,517.1 417.0,517.1 406.4,523.0 402.8,520.7 406.4,517.1 402.8,511.2 392.1,510.0 387.4,514.7 380.3,514.7 375.6,518.3 369.6,517.1 369.6,472.1 379.1,472.1 377.9,467.3 380.3,465.0 389.8,467.3 394.5,431.8 391.0,425.9 391.0,418.7 382.7,411.6 386.2,408.1 387.4,402.1" fill="#a9c9de" stroke="#8fb2c9" stroke-width="0.6"/>
<polygon id="aem" points="388.6,274.1 407.6,275.3 405.2,284.8 409.9,291.9 414.7,319.2 421.8,320.4 421.8,325.1 418.2,327.5 404.0,322.7 398.1,316.8 388.6,321.6 380.3,322.7 376.7,315.6 370.8,310.9 370.8,303.8 387.4,280.1" fill="#e9dcbb" stroke="#a2977a" stroke-width="0.6"/>
<polygon id="ala" points="368.4,203.0 368.4,209.0 353.0,232.7 350.7,250.4 353.0,255.2 376.7,252.8 386.2,249.3 387.4,236.2 391.0,232.7 386.2,227.9 393.3,214.9 388.6,203.0 379.1,199.5" fill="#e9dcbb" stroke="#a2977a" stroke-width="0.6"/>
<polygon id="ale" points="726.4,668.8 731.1,655.8 731.1,648.7 744.1,653.4 752.4,653.4 760.7,646.3 765.5,646.3 782.1,638.0 798.7,640.4 799.9,647.5 804.6,649.9 808.1,646.3 830.7,647.5 835.4,649.9 839.0,646.3 847.3,651.0 869.8,653.4 889.9,664.1 891.1,668.8" fill="#e9dcbb" stroke="#a2977a" stroke-width="0.6"/>
<polygon id="alp" points="380.3,322.7 376.7,315.6 370.8,310.9 370.8,303.8 387.4,280.1 388.6,274.1 375.6,274.1 373.2,278.9 363.7,277.7 343.6,288.4 335.3,287.2 323.4,291.9 322.2,297.9 334.1,299.0 338.8,302.6 332.9,314.4 338.8,319.2 341.2,334.6 353.0,352.4 359.0,352.4 367.3,346.4 368.4,341.7 372.0,339.3 369.6,332.2 373.2,323.9" fill="#e9dcbb" stroke="#a2977a" stroke-width="0.6"/>
<polygon id="anc" points="477.5,389.1 460.9,354.7 453.8,350.0 439.6,360.7 438.4,373.7 440.7,378.4 438.4,384.4 444.3,387.9 464.4,392.7" fill="#e9dcbb" stroke="#a2977a" stroke-width="0.6"/>
<polygon id="ant" points="796.3,524.2 811.7,538.4 818.8,539.6 827.1,539.6 844.9,530.1 849.6,523.0 869.8,529.0 874.5,523.0 880.4,525.4 878.1,534.9 871.0,536.1 869.8,539.6 874.5,544.4 871.0,551.5 875.7,557.4 899.4,556.2 911.3,545.6 911.3,539.6 919.6,524.2 913.6,514.7 917.2,508.8 901.8,497.0 874.5,499.3 866.2,504.1 859.1,512.4 844.9,510.0 833.0,515.9 802.2,515.9" fill="#e9dcbb" stroke="#a2977a" stroke-width="0.6"/>
<polygon id="aqu" points="201.3,316.8 199.0,310.9 191.9,307.3 191.9,295.5 187.1,287.2 178.8,284.8 176.4,274.1 171.7,268.2 176.4,267.0 174.1,261.1 178.8,259.9 204.9,265.9 217.9,262.3 225.0,265.9 234.5,264.7 239.3,251.6 249.9,249.3 267.7,254.0 268.9,263.5 283.1,286.0 280.7,296.7 287.9,305.0 278.4,313.3 274.8,321.6 265.3,323.9 263.0,332.2 239.3,335.8 235.7,344.1 217.9,344.1 214.4,337.0 209.6,334.6 213.2,322.7 209.6,318.0" fill="#e9dcbb" stroke="#a2977a" stroke-width="0.6"/>
<polygon id="asd" points="548.6,245.7 558.1,246.9 562.8,244.5 567.6,248.1 572.3,245.7 599.6,245.7 601.9,238.6 611.4,235.0 617.3,236.2 623.3,230.3 639.9,227.9 644.6,223.2 639.9,212.5 632.7,206.6 619.7,204.2 581.8,201.9 574.7,199.5 569.9,201.9 560.4,201.9 560.4,214.9 555.7,232.7 546.2,233.9 543.9,238.6" fill="#e9dcbb" stroke="#a2977a" stroke-width="0.6"/>
<polygon id="ath" points="637.5,531.3 642.2,531.3 633.9,510.0 639.9,510.0 643.4,514.7 647.0,507.6 639.9,500.5 645.8,495.8 656.4,505.3 657.6,498.1 651.7,487.5 643.4,485.1 642.2,479.2 632.7,474.4 615.0,474.4 606.7,478.0 606.7,483.9 601.9,485.1 601.9,488.7 624.4,485.1 633.9,491.0 636.3,494.6 623.3,489.9 607.9,489.9 600.7,495.8 609.0,508.8 609.0,514.7 615.0,524.2 617.3,524.2 618.5,518.3 622.1,519.5 626.8,531.3 630.4,521.9" fill="#e9dcbb" stroke="#a2977a" stroke-width="0.6"/>
<polygon id="bae" points="112.4,538.4 119.6,531.3 126.7,530.1 130.2,525.4 158.7,524.2 163.4,526.6 167.0,520.7 176.4,523.0 178.8,514.7 183.6,508.8 197.8,506.4 197.8,498.1 203.7,483.9 213.2,480.4 215.6,476.8 209.6,472.1 206.1,463.8 187.1,459.0 187.1,433.0 180.0,421.1 168.1,425.9 156.3,418.7 136.1,423.5 129.0,437.7 124.3,466.1 101.8,478.0 88.7,480.4 79.3,498.1 80.4,513.6 95.9,520.7 104.1,538.4" fill="#e9dcbb" stroke="#a2977a" stroke-width="0.6"/>
<polygon id="bel" points="248.7,153.3 258.2,153.3 273.6,146.1 292.6,171.0 297.3,184.1 309.2,200.7 308.0,209.0 271.3,203.0 254.7,205.4 245.2,194.7 245.2,187.6 240.4,182.9 245.2,171.0 245.2,156.8" fill="#e9dcbb" stroke="#a2977a" stroke-width="0.6"/>
<polygon id="bru" points="553.3,440.1 532.0,428.2 532.0,423.5 521.3,416.4 515.4,417.6 510.7,414.0 501.2,425.9 501.2,435.3 520.1,447.2 524.9,442.4 539.1,446.0 542.7,448.4 542.7,453.1 548.6,456.7 553.3,456.7 556.9,446.0" fill="#e9dcbb" stroke="#a2977a" stroke-width="0.6"/>
<polygon id="bur" points="235.7,344.1 217.9,344.1 214.4,337.0 209.6,334.6 213.2,322.7 209.6,318.0 200.1,318.0 194.2,310.9 191.9,310.9 189.5,331.0 193.0,333.4 189.5,335.8 187.1,359.5 194.2,369.0 202.5,370.1 213.2,380.8 223.9,379.6 235.7,366.6 240.4,355.9" fill="#e9dcbb" stroke="#a2977a" stroke-width="0.6"/>
<polygon id="byz" points="712.1,431.8 718.1,427.0 752.4,427.0 753.6,430.6 744.1,431.8 758.4,442.4 801.0,441.3 810.5,435.3 803.4,418.7 792.7,415.2 789.2,419.9 750.1,417.6 743.0,410.4 731.1,406.9 731.1,402.1 720.4,405.7 711.0,412.8 705.0,425.9 750.1,417.6 739.4,427.0 744.1,427.0 753.6,417.6" fill="#e9dcbb" stroke="#a2977a" stroke-width="0.6"/>
<polygon id="cap" points="487.0,442.4 481.0,437.7 477.5,437.7 458.5,421.1 462.1,412.8 473.9,408.1 484.6,419.9 502.4,423.5 501.2,435.3 496.4,438.9" fill="#e9dcbb" stroke="#a2977a" stroke-width="0.6"/>
<polygon id="car" points="369.6,517.1 361.3,520.7 351.9,514.7 344.7,514.7 342.4,518.3 328.1,517.1 325.8,521.9 317.5,526.6 325.8,545.6 340.0,557.4 341.2,561.0 359.0,564.5 386.2,587.0 402.8,587.0 402.8,581.1 418.2,563.3 419.4,555.0 414.7,545.6 408.7,539.6 421.8,520.7 421.8,517.1 417.0,517.1 406.4,523.0 402.8,520.7 406.4,517.1 402.8,511.2 392.1,510.0 387.4,514.7 380.3,514.7 375.6,518.3" fill="#e9dcbb" stroke="#a2977a" stroke-width="0.6"/>
<polygon id="cha" points="434.8,180.5 433.6,175.8 445.5,166.3 479.9,156.8 483.4,153.3 494.1,154.4 507.1,169.9 505.9,180.5 489.3,185.3 469.2,186.4 452.6,194.7 446.7,181.7" fill="#e9dcbb" stroke="#a2977a" stroke-width="0.6"/>
<polygon id="che" points="837.8,288.4 825.9,294.3 829.5,299.0 821.2,301.4 818.8,306.1 810.5,310.9 810.5,314.4 818.8,314.4 829.5,322.7 825.9,334.6 835.4,340.5 841.3,340.5 850.8,329.9 857.9,328.7 863.9,323.9 880.4,323.9 884.0,319.2 886.4,309.7 882.8,307.3 876.9,312.1 866.2,314.4 846.1,296.7 853.2,293.1 848.4,289.6" fill="#e9dcbb" stroke="#a2977a" stroke-width="0.6"/>
<polygon id="col" points="286.7,137.9 292.6,139.0 315.1,128.4 334.1,133.1 337.6,152.1 355.4,185.3 368.4,185.3 368.4,209.0 353.0,232.7 342.4,227.9 335.3,239.8 327.0,235.0 317.5,235.0 305.6,223.2 309.2,200.7 297.3,184.1 292.6,171.0 273.6,146.1 277.2,142.6 285.5,141.4 281.9,137.9" fill="#e9dcbb" stroke="#a2977a" stroke-width="0.6"/>
<polygon id="dac" points="560.4,389.1 562.8,384.4 558.1,358.3 559.3,353.6 564.0,353.6 564.0,347.6 572.3,347.6 562.8,341.7 566.4,335.8 567.6,326.3 574.7,323.9 579.4,326.3 581.8,331.0 585.3,331.0 592.4,323.9 599.6,331.0 604.3,327.5 610.2,327.5 620.9,333.4 629.2,329.9 630.4,333.4 626.8,337.0 637.5,345.3 638.7,353.6 652.9,352.4 657.6,355.9 662.4,355.9 662.4,366.6 656.4,373.7 651.7,373.7 649.3,377.3 649.3,395.0 645.8,404.5 641.0,405.7 631.6,393.9 620.9,396.2 616.1,409.3 604.3,411.6 587.7,408.1 580.6,409.3 575.9,408.1 571.1,402.1 561.6,398.6 558.1,393.9" fill="#e9dcbb" stroke="#a2977a" stroke-width="0.6"/>
<polygon id="dal" points="560.4,300.2 567.6,308.5 567.6,315.6 587.7,315.6 592.4,323.9 585.3,331.0 581.8,331.0 579.4,326.3 574.7,323.9 567.6,326.3 566.4,335.8 562.8,341.7 572.3,347.6 564.0,347.6 564.0,353.6 559.3,353.6 558.1,358.3 562.8,384.4 560.4,389.1 537.9,378.4 537.9,371.3 515.4,363.0 511.9,364.2 497.6,353.6 498.8,346.4 485.8,332.2 489.3,323.9 487.0,316.8 477.5,314.4 476.3,305.0 485.8,305.0 489.3,295.5 511.9,288.4 527.3,293.1 539.1,302.6 553.3,302.6" fill="#e9dcbb" stroke="#a2977a" stroke-width="0.6"/>
<polygon id="ebu" points="174.1,70.3 155.1,66.7 145.6,56.1 143.3,43.0 146.8,37.1 156.3,33.6 168.1,31.2 181.2,33.6 185.9,44.2 196.6,46.6 206.1,65.6 208.4,73.9 194.2,76.2" fill="#e9dcbb" stroke="#a2977a" stroke-width="0.6"/>
<polygon id="fla" points="152.7,137.9 146.8,142.6 140.9,142.6 135.0,137.9 130.2,139.0 123.1,131.9 114.8,133.1 111.3,130.7 117.2,124.8 135.0,115.3 130.2,109.4 131.4,98.7 123.1,98.7 127.9,89.3 132.6,89.3 138.5,85.7 148.0,85.7 152.7,79.8 150.4,69.1 155.1,66.7 174.1,70.3 164.6,92.8 170.5,120.1 165.8,130.7 159.9,135.5" fill="#e9dcbb" stroke="#a2977a" stroke-width="0.6"/>
<polygon id="fra" points="319.9,128.4 334.1,133.1 337.6,152.1 343.6,162.7 361.3,156.8 372.0,134.3 367.3,122.4 360.1,117.7 362.5,105.9 360.1,103.5 353.0,107.0 347.1,107.0 344.7,115.3 341.2,115.3 335.3,110.6 331.7,115.3 327.0,115.3" fill="#e9dcbb" stroke="#a2977a" stroke-width="0.6"/>
<polygon id="fri" points="347.1,107.0 344.7,115.3 341.2,115.3 335.3,110.6 331.7,115.3 327.0,115.3 319.9,128.4 315.1,128.4 292.6,139.0 284.3,135.5 290.2,120.1 297.3,116.5 300.9,97.6 308.0,103.5 304.4,107.0 306.8,118.9 315.1,118.9 321.0,107.0 317.5,102.3 311.6,101.1 310.4,91.6 321.0,84.5 336.4,82.1 349.5,90.4 344.7,95.2" fill="#e9dcbb" stroke="#a2977a" stroke-width="0.6"/>
<polygon id="gal" points="752.4,437.7 740.6,441.3 712.1,441.3 695.6,448.4 695.6,460.2 701.5,457.9 706.2,460.2 706.2,467.3 712.1,475.6 724.0,473.3 737.0,465.0 765.5,469.7 764.3,480.4 779.7,488.7 778.5,504.1 796.3,514.7 833.0,515.9 844.9,510.0 859.1,512.4 866.2,504.1 874.5,499.3 895.9,498.1 893.5,495.8 893.5,488.7 898.2,486.3 893.5,482.7 882.8,460.2 871.0,457.9 871.0,453.1 862.7,453.1 857.9,444.8 847.3,437.7 810.5,435.3 801.0,441.3 758.4,442.4 756.0,438.9" fill="#e9dcbb" stroke="#a2977a" stroke-width="0.6"/>
<polygon id="gen" points="418.2,327.5 404.0,322.7 398.1,316.8 388.6,321.6 373.2,323.9 369.6,332.2 372.0,339.3 380.3,340.5 401.6,350.0 413.5,346.4 413.5,335.8" fill="#e9dcbb" stroke="#a2977a" stroke-width="0.6"/>
<polygon id="hai" points="391.0,30.0 391.0,34.7 401.6,34.7 398.1,45.4 409.9,51.3 419.4,50.1 419.4,59.6 413.5,64.4 423.0,66.7 431.3,59.6 437.2,59.6 450.2,47.8 462.1,53.7 469.2,67.9 477.5,72.7 483.4,81.0 477.5,90.4 477.5,99.9 481.0,109.4 473.9,113.0 462.1,108.2 451.4,111.8 444.3,108.2 438.4,97.6 409.9,88.1 381.5,66.7 370.8,66.7 373.2,51.3 376.7,49.0 370.8,30.0" fill="#e9dcbb" stroke="#a2977a" stroke-width="0.6"/>
<polygon id="hu0" points="650.5,30.0 658.8,40.7 655.3,47.8 657.6,52.5 651.7,70.3 651.7,73.9 657.6,77.4 647.0,88.1 635.1,88.1 632.7,82.1 628.0,79.8 613.8,81.0 607.9,94.0 611.4,97.6 603.1,99.9 603.1,110.6 587.7,113.0 573.5,105.9 565.2,105.9 558.1,111.8 553.3,111.8 552.1,104.7 536.7,94.0 524.9,94.0 505.9,98.7 487.0,109.4 481.0,109.4 477.5,99.9 477.5,90.4 483.4,81.0 484.6,65.6 514.2,53.7 519.0,45.4 533.2,38.3 552.1,35.9 555.7,39.5 553.3,40.7 555.7,46.6 562.8,51.3 571.1,50.1 572.3,52.5 588.9,43.0 579.4,39.5 581.8,30.0" fill="#e9dcbb" stroke="#a2977a" stroke-width="0.6"/>
<polygon id="hu1" points="604.3,130.7 616.1,137.9 626.8,136.7 639.9,155.6 622.1,167.5 632.7,192.4 642.2,195.9 632.7,206.6 581.8,201.9 574.7,199.5 569.9,201.9 553.3,201.9 549.8,192.4 528.4,194.7 523.7,190.0 521.3,178.1 524.9,174.6 528.4,175.8 541.5,169.9 565.2,166.3 568.7,160.4 574.7,159.2 577.0,143.8 581.8,139.0 588.9,139.0" fill="#e9dcbb" stroke="#a2977a" stroke-width="0.6"/>
<polygon id="hu2" points="650.5,30.0 658.8,40.7 655.3,47.8 657.6,52.5 651.7,70.3 651.7,73.9 657.6,77.4 647.0,88.1 635.1,88.1 632.7,82.1 628.0,79.8 613.8,81.0 607.9,94.0 611.4,97.6 603.1,99.9 603.1,110.6 615.0,113.0 611.4,117.7 615.0,124.8 604.3,130.7 616.1,137.9 626.8,136.7 639.9,155.6 673.0,141.4 696.7,137.9 722.8,141.4 725.2,147.3 720.4,162.7 724.0,172.2 728.7,175.8 731.1,198.3 737.0,203.0 738.2,210.1 746.5,213.7 766.7,233.9 773.8,233.9 790.4,242.1 793.9,255.2 817.6,258.7 833.0,267.0 840.1,258.7 842.5,248.1 847.3,246.9 854.4,250.4 859.1,248.1 862.7,225.6 872.1,219.6 880.4,218.4 884.0,211.3 895.9,204.2 904.1,205.4 911.3,214.9 923.1,211.3 929.0,217.3 938.5,216.1 948.0,204.2 961.0,201.9 961.0,30.0" fill="#e9dcbb" stroke="#a2977a" stroke-width="0.6"/>
<polygon id="hu3" points="729.9,310.9 735.9,308.5 739.4,315.6 760.7,318.0 758.4,303.8 764.3,303.8 779.7,290.7 778.5,284.8 792.7,278.9 805.8,282.4 797.5,286.0 803.4,290.7 825.9,294.3 837.8,288.4 831.9,274.1 833.0,267.0 817.6,258.7 793.9,255.2 775.0,257.6 766.7,261.1 746.5,262.3 726.4,270.6 718.1,276.5 706.2,280.1 718.1,305.0 722.8,306.1" fill="#e9dcbb" stroke="#a2977a" stroke-width="0.6"/>
<polygon id="iaz" points="567.6,248.1 564.0,255.2 565.2,288.4 559.3,294.3 560.4,300.2 567.6,308.5 567.6,315.6 587.7,315.6 599.6,331.0 604.3,327.5 610.2,327.5 620.9,333.4 629.2,329.9 630.4,333.4 626.8,337.0 637.5,345.3 638.7,353.6 652.9,352.4 657.6,355.9 662.4,355.9 671.9,352.4 683.7,355.9 708.6,344.1 716.9,345.3 725.2,342.9 732.3,332.2 726.4,325.1 729.9,320.4 729.9,310.9 718.1,305.0 706.2,280.1 695.6,280.1 684.9,276.5 683.7,273.0 671.9,274.1 670.7,281.3 665.9,284.8 652.9,286.0 633.9,268.2 620.9,263.5 625.6,238.6 623.3,230.3 617.3,236.2 611.4,235.0 601.9,238.6 599.6,245.7 572.3,245.7" fill="#e9dcbb" stroke="#a2977a" stroke-width="0.6"/>
<polygon id="jut" points="362.5,109.4 360.1,103.5 353.0,107.0 347.1,107.0 344.7,95.2 349.5,90.4 342.4,82.1 345.9,76.2 360.1,72.7 363.7,79.8 370.8,79.8 369.6,72.7 372.0,67.9 383.9,69.1 409.9,88.1 409.9,94.0 398.1,101.1 386.2,101.1 381.5,108.2 376.7,109.4" fill="#e9dcbb" stroke="#a2977a" stroke-width="0.6"/>
<polygon id="lan" points="372.0,134.3 367.3,122.4 360.1,117.7 362.5,109.4 376.7,109.4 381.5,108.2 386.2,101.1 398.1,101.1 409.9,94.0 409.9,88.1 438.4,97.6 444.3,108.2 451.4,111.8 444.3,123.6 444.3,128.4 427.7,136.7 409.9,136.7 396.9,143.8 388.6,136.7 376.7,136.7" fill="#e9dcbb" stroke="#a2977a" stroke-width="0.6"/>
<polygon id="lon" points="158.7,171.0 151.6,166.3 144.4,168.7 143.3,175.8 136.1,180.5 127.9,175.8 120.7,177.0 112.4,185.3 101.8,185.3 103.0,181.7 111.3,179.3 116.0,173.4 121.9,171.0 126.7,154.4 135.0,148.5 148.0,148.5 155.1,141.4 152.7,137.9 165.8,130.7 189.5,137.9 206.1,133.1 221.5,135.5 225.0,136.7 219.1,141.4 223.9,143.8 234.5,142.6 234.5,148.5 231.0,153.3 214.4,162.7 170.5,165.1 167.0,171.0" fill="#e9dcbb" stroke="#a2977a" stroke-width="0.6"/>
<polygon id="lug" points="174.1,261.1 165.8,255.2 148.0,249.3 140.9,244.5 132.6,246.9 127.9,238.6 131.4,237.4 127.9,235.0 133.8,233.9 125.5,227.9 136.1,222.0 144.4,222.0 150.4,216.1 157.5,216.1 158.7,219.6 164.6,223.2 167.0,220.8 177.6,220.8 181.2,224.4 187.1,222.0 185.9,219.6 207.3,220.8 228.6,226.7 229.8,236.2 235.7,250.4 239.3,251.6 234.5,264.7 225.0,265.9 217.9,262.3 204.9,265.9 178.8,259.9" fill="#e9dcbb" stroke="#a2977a" stroke-width="0.6"/>
<polygon id="lut" points="228.6,226.7 229.8,236.2 235.7,250.4 249.9,249.3 267.7,254.0 290.2,235.0 291.4,231.5 309.2,226.7 305.6,223.2 308.0,209.0 271.3,203.0 254.7,205.4 244.0,216.1" fill="#e9dcbb" stroke="#a2977a" stroke-width="0.6"/>
<polygon id="lyb" points="726.4,668.8 731.1,655.8 731.1,648.7 697.9,641.6 696.7,638.0 680.1,638.0 673.0,628.5 654.1,627.3 637.5,621.4 641.0,617.9 639.9,615.5 631.6,613.1 625.6,608.4 611.4,608.4 588.9,622.6 581.8,635.6 583.0,651.0 566.4,662.9 566.4,668.8" fill="#e9dcbb" stroke="#a2977a" stroke-width="0.6"/>
<polygon id="mac" points="604.3,411.6 587.7,408.1 575.9,408.1 572.3,410.4 573.5,436.5 571.1,440.1 580.6,450.7 575.9,454.3 577.0,456.7 583.0,455.5 591.3,468.5 591.3,473.3 596.0,475.6 601.9,485.1 606.7,483.9 606.7,478.0 615.0,474.4 632.7,474.4 638.7,465.0 639.9,457.9 630.4,446.0 631.6,437.7 636.3,437.7 648.1,451.9 647.0,446.0 652.9,449.6 655.3,442.4 664.7,444.8 661.2,438.9 654.1,436.5 654.1,429.4 668.3,425.9 665.9,418.7 654.1,421.1 645.8,404.5 641.0,405.7 631.6,393.9 620.9,396.2 616.1,409.3 610.2,409.3" fill="#e9dcbb" stroke="#a2977a" stroke-width="0.6"/>
<polygon id="mas" points="290.2,361.9 303.3,365.4 306.8,363.0 316.3,366.6 319.9,371.3 327.0,372.5 335.3,369.0 341.2,358.3 349.5,357.1 353.0,352.4 341.2,334.6 338.8,319.2 332.9,314.4 338.8,302.6 334.1,299.0 322.2,297.9 319.9,302.6 308.0,299.0 299.7,309.7 287.9,305.0 278.4,313.3 274.8,321.6 279.6,323.9 285.5,335.8 295.0,338.1 300.9,346.4" fill="#e9dcbb" stroke="#a2977a" stroke-width="0.6"/>
<polygon id="mau" points="317.5,526.6 303.3,520.7 289.0,520.7 279.6,525.4 247.6,529.0 229.8,533.7 217.9,539.6 214.4,545.6 204.9,543.2 175.3,561.0 167.0,562.1 158.7,556.2 123.1,556.2 112.4,544.4 107.7,546.7 103.0,549.1 101.8,561.0 87.6,588.2 68.6,596.5 53.2,607.2 42.5,622.6 37.8,623.8 37.8,668.8 308.0,668.8 322.2,602.4 331.7,576.4 341.2,561.0 340.0,557.4 325.8,545.6 317.5,526.6" fill="#e9dcbb" stroke="#a2977a" stroke-width="0.6"/>
<polygon id="max" points="208.4,73.9 194.2,76.2 174.1,70.3 164.6,92.8 170.5,120.1 165.8,130.7 189.5,137.9 206.1,133.1 225.0,136.7 232.1,133.1 240.4,117.7 238.1,101.1 229.8,96.4 220.3,96.4 217.9,99.9 213.2,101.1 210.8,98.7 215.6,94.0 215.6,89.3 209.6,81.0" fill="#e9dcbb" stroke="#a2977a" stroke-width="0.6"/>
<polygon id="mil" points="712.1,475.6 706.2,476.8 706.2,482.7 699.1,480.4 697.9,488.7 701.5,492.2 712.1,495.8 712.1,504.1 718.1,511.2 716.9,517.1 732.3,515.9 728.7,526.6 737.0,523.0 741.8,526.6 747.7,524.2 751.3,534.9 764.3,537.3 766.7,533.7 772.6,534.9 775.0,532.5 777.3,520.7 796.3,524.2 802.2,515.9 796.3,514.7 778.5,504.1 779.7,488.7 764.3,480.4 765.5,469.7 737.0,465.0 724.0,473.3" fill="#e9dcbb" stroke="#a2977a" stroke-width="0.6"/>
<polygon id="nar" points="270.1,387.9 267.7,380.8 274.8,370.1 290.2,361.9 300.9,346.4 295.0,338.1 285.5,335.8 279.6,323.9 274.8,321.6 265.3,323.9 263.0,332.2 239.3,335.8 235.7,344.1 240.4,355.9 235.7,366.6 223.9,379.6 223.9,383.2 227.4,386.7 239.3,383.2 247.6,387.9" fill="#e9dcbb" stroke="#a2977a" stroke-width="0.6"/>
<polygon id="num" points="308.0,668.8 322.2,602.4 331.7,576.4 341.2,561.0 359.0,564.5 386.2,587.0 402.8,587.0 405.2,594.1 419.4,594.1 424.1,602.4 436.0,603.6 446.7,611.9 475.1,613.1 483.4,619.0 495.3,621.4 497.6,623.8 496.4,632.1 502.4,640.4 535.6,651.0 541.5,651.0 559.3,661.7 566.4,662.9 566.4,668.8" fill="#e9dcbb" stroke="#a2977a" stroke-width="0.6"/>
<polygon id="oli" points="57.9,424.7 57.9,435.3 53.2,442.4 54.4,449.6 44.9,466.1 49.6,487.5 53.2,483.9 56.7,506.4 50.8,521.9 61.5,517.1 73.3,521.9 82.8,515.9 80.4,513.6 79.3,498.1 88.7,480.4 101.8,478.0 124.3,466.1 129.0,437.7 136.1,423.5 130.2,424.7 101.8,411.6 89.9,424.7 79.3,422.3 74.5,425.9" fill="#e9dcbb" stroke="#a2977a" stroke-width="0.6"/>
<polygon id="ori" points="961.0,507.6 942.1,502.9 931.4,508.8 917.2,508.8 913.6,514.7 919.6,524.2 911.3,539.6 911.3,545.6 899.4,556.2 875.7,557.4 871.0,564.5 875.7,571.6 868.6,578.7 867.4,596.5 862.7,606.0 854.4,614.3 848.4,639.2 839.0,646.3 847.3,651.0 869.8,653.4 889.9,664.1 891.1,668.8 961.0,668.8" fill="#e9dcbb" stroke="#a2977a" stroke-width="0.6"/>
<polygon id="ost" points="961.0,201.9 948.0,204.2 938.5,216.1 929.0,217.3 923.1,211.3 911.3,214.9 904.1,205.4 895.9,204.2 884.0,211.3 880.4,218.4 872.1,219.6 862.7,225.6 859.1,248.1 854.4,250.4 847.3,246.9 842.5,248.1 840.1,258.7 833.0,267.0 831.9,274.1 837.8,288.4 848.4,289.6 853.2,293.1 867.4,286.0 872.1,278.9 888.7,277.7 924.3,261.1 926.7,263.5 937.3,261.1 936.1,269.4 905.3,277.7 920.7,290.7 920.7,294.3 912.4,297.9 905.3,307.3 907.7,313.3 904.1,315.6 897.0,314.4 893.5,319.2 903.0,329.9 907.7,328.7 908.9,334.6 925.5,342.9 961.0,373.7" fill="#e9dcbb" stroke="#a2977a" stroke-width="0.6"/>
<polygon id="pon" points="961.0,419.9 940.9,421.1 931.4,418.7 923.1,425.9 913.6,425.9 906.5,421.1 879.3,414.0 875.7,405.7 866.2,406.9 860.3,398.6 831.9,398.6 825.9,396.2 792.7,415.2 803.4,418.7 810.5,435.3 847.3,437.7 857.9,444.8 862.7,453.1 871.0,453.1 871.0,457.9 882.8,460.2 893.5,482.7 898.2,486.3 893.5,488.7 893.5,495.8 895.9,498.1 901.8,497.0 917.2,508.8 931.4,508.8 942.1,502.9 961.0,507.6" fill="#e9dcbb" stroke="#a2977a" stroke-width="0.6"/>
<polygon id="qua" points="502.4,229.1 508.3,231.5 514.2,230.3 519.0,236.2 527.3,236.2 539.1,245.7 548.6,245.7 543.9,238.6 546.2,233.9 555.7,232.7 560.4,214.9 560.4,201.9 553.3,201.9 549.8,192.4 528.4,194.7 532.0,198.3 529.6,205.4 523.7,204.2 511.9,211.3 504.7,219.6" fill="#e9dcbb" stroke="#a2977a" stroke-width="0.6"/>
<polygon id="rav" points="453.8,350.0 450.2,346.4 444.3,345.3 444.3,325.1 439.6,320.4 440.7,310.9 428.9,313.3 421.8,320.4 421.8,325.1 413.5,335.8 413.5,346.4 418.2,354.7 424.1,359.5 439.6,360.7" fill="#e9dcbb" stroke="#a2977a" stroke-width="0.6"/>
<polygon id="reg" points="376.7,252.8 386.2,249.3 387.4,236.2 391.0,232.7 417.0,219.6 425.3,220.8 443.1,213.7 464.4,225.6 463.3,232.7 444.3,233.9 438.4,239.8 436.0,269.4 439.6,276.5 437.2,278.9 375.6,274.1 379.1,267.0" fill="#e9dcbb" stroke="#a2977a" stroke-width="0.6"/>
<polygon id="rhe" points="487.0,442.4 498.8,455.5 507.1,479.2 498.8,488.7 500.0,497.0 507.1,497.0 510.7,489.9 515.4,487.5 519.0,475.6 528.4,474.4 528.4,466.1 527.3,462.6 519.0,457.9 520.1,447.2 501.2,435.3 496.4,438.9" fill="#e9dcbb" stroke="#a2977a" stroke-width="0.6"/>
<polygon id="rip" points="434.8,180.5 414.7,179.3 408.7,172.2 401.6,150.9 396.9,143.8 409.9,136.7 427.7,136.7 444.3,128.4 444.3,123.6 451.4,111.8 458.5,108.2 473.9,113.0 473.9,122.4 469.2,122.4 466.8,128.4 475.1,131.9 477.5,147.3 483.4,153.3 479.9,156.8 445.5,166.3 433.6,175.8" fill="#e9dcbb" stroke="#a2977a" stroke-width="0.6"/>
<polygon id="rom" points="426.5,393.9 427.7,402.1 446.7,415.2 458.5,417.6 462.1,412.8 473.9,408.1 464.4,392.7 444.3,387.9 438.4,384.4" fill="#e9dcbb" stroke="#a2977a" stroke-width="0.6"/>
<polygon id="rot" points="185.9,219.6 184.7,206.6 178.8,191.2 190.7,191.2 193.0,193.6 190.7,198.3 208.4,203.0 217.9,200.7 217.9,191.2 220.3,188.8 240.4,182.9 245.2,187.6 245.2,194.7 254.7,205.4 244.0,216.1 228.6,226.7 207.3,220.8 193.0,220.8" fill="#e9dcbb" stroke="#a2977a" stroke-width="0.6"/>
<polygon id="sag" points="206.1,463.8 206.1,456.7 223.9,433.0 228.6,433.0 232.1,429.4 228.6,428.2 236.9,418.7 249.9,415.2 274.8,399.8 271.3,396.2 270.1,387.9 247.6,387.9 239.3,383.2 227.4,386.7 203.7,411.6 183.6,417.6 180.0,421.1 187.1,433.0 187.1,459.0 201.3,463.8" fill="#e9dcbb" stroke="#a2977a" stroke-width="0.6"/>
<polygon id="sam" points="510.7,414.0 504.7,411.6 510.7,402.1 507.1,399.8 489.3,397.4 477.5,389.1 464.4,392.7 468.0,401.0 484.6,419.9 502.4,423.5" fill="#e9dcbb" stroke="#a2977a" stroke-width="0.6"/>
<polygon id="scy" points="683.7,355.9 708.6,344.1 716.9,345.3 725.2,342.9 732.3,332.2 726.4,325.1 729.9,320.4 729.9,310.9 732.3,308.5 735.9,308.5 739.4,315.6 760.7,318.0 759.6,331.0 751.3,329.9 745.3,332.2 741.8,339.3 739.4,364.2 731.1,364.2 727.6,369.0 727.6,380.8 724.0,386.7 731.1,402.1 720.4,405.7 711.0,412.8 708.6,399.8 694.4,387.9 694.4,384.4 683.7,371.3" fill="#e9dcbb" stroke="#a2977a" stroke-width="0.6"/>
<polygon id="seq" points="353.0,232.7 342.4,227.9 335.3,239.8 327.0,235.0 317.5,235.0 315.1,243.3 322.2,250.4 313.9,276.5 318.7,288.4 323.4,291.9 335.3,287.2 343.6,288.4 363.7,277.7 373.2,278.9 379.1,267.0 376.7,252.8 353.0,255.2 350.7,250.4" fill="#e9dcbb" stroke="#a2977a" stroke-width="0.6"/>
<polygon id="sil" points="603.1,110.6 587.7,113.0 573.5,105.9 565.2,105.9 558.1,111.8 553.3,111.8 552.1,104.7 536.7,94.0 524.9,94.0 505.9,98.7 487.0,109.4 481.0,109.4 473.9,113.0 473.9,122.4 469.2,122.4 466.8,128.4 475.1,131.9 477.5,147.3 483.4,153.3 494.1,154.4 507.1,169.9 507.1,175.8 521.3,178.1 524.9,174.6 528.4,175.8 541.5,169.9 565.2,166.3 568.7,160.4 574.7,159.2 577.0,143.8 581.8,139.0 588.9,139.0 615.0,124.8 611.4,117.7 615.0,113.0" fill="#e9dcbb" stroke="#a2977a" stroke-width="0.6"/>
<polygon id="sue" points="464.4,225.6 469.2,225.6 483.4,235.0 494.1,235.0 497.6,229.1 502.4,229.1 504.7,219.6 511.9,211.3 523.7,204.2 529.6,205.4 532.0,198.3 523.7,190.0 521.3,178.1 507.1,175.8 505.9,180.5 489.3,185.3 469.2,186.4 452.6,194.7 446.7,205.4 443.1,206.6 443.1,213.7 462.1,223.2" fill="#e9dcbb" stroke="#a2977a" stroke-width="0.6"/>
<polygon id="syr" points="436.0,502.9 447.9,510.0 466.8,515.9 479.9,527.8 485.8,529.0 485.8,506.4 489.3,498.1 489.3,489.9 471.6,494.6 459.7,494.6 450.2,491.0 444.3,493.4 441.9,492.2 436.0,498.1" fill="#e9dcbb" stroke="#a2977a" stroke-width="0.6"/>
<polygon id="tar" points="57.9,424.7 54.4,395.0 56.7,384.4 52.0,382.0 46.1,372.5 53.2,366.6 61.5,366.6 66.2,363.0 65.0,359.5 73.3,354.7 81.6,355.9 88.7,360.7 94.7,358.3 110.1,358.3 130.2,361.9 149.2,359.5 153.9,363.0 163.4,360.7 167.0,364.2 187.1,359.5 194.2,369.0 202.5,370.1 213.2,380.8 223.9,379.6 223.9,383.2 227.4,386.7 203.7,411.6 183.6,417.6 168.1,425.9 156.3,418.7 130.2,424.7 101.8,411.6 89.9,424.7 79.3,422.3 74.5,425.9" fill="#e9dcbb" stroke="#a2977a" stroke-width="0.6"/>
<polygon id="teu" points="343.6,162.7 361.3,156.8 372.0,134.3 376.7,136.7 388.6,136.7 401.6,150.9 408.7,172.2 402.8,174.6 400.4,179.3 389.8,185.3 369.6,190.0 366.1,184.1 355.4,185.3" fill="#e9dcbb" stroke="#a2977a" stroke-width="0.6"/>
<polygon id="thr" points="662.4,355.9 662.4,366.6 656.4,373.7 651.7,373.7 649.3,377.3 649.3,395.0 645.8,404.5 654.1,421.1 665.9,418.7 668.3,425.9 676.6,423.5 682.5,427.0 693.2,428.2 694.4,433.0 700.3,434.1 693.2,441.3 699.1,441.3 712.1,431.8 705.0,425.9 711.0,412.8 708.6,399.8 694.4,387.9 694.4,384.4 683.7,371.3 683.7,355.9 668.3,352.4" fill="#e9dcbb" stroke="#a2977a" stroke-width="0.6"/>
<polygon id="tus" points="401.6,350.0 401.6,359.5 406.4,374.9 412.3,380.8 417.0,391.5 426.5,393.9 438.4,384.4 440.7,378.4 438.4,373.7 439.6,360.7 424.1,359.5 418.2,354.7 413.5,346.4" fill="#e9dcbb" stroke="#a2977a" stroke-width="0.6"/>
<polygon id="van" points="368.4,203.0 379.1,199.5 388.6,203.0 393.3,214.9 386.2,227.9 391.0,232.7 417.0,219.6 425.3,220.8 443.1,213.7 443.1,206.6 446.7,205.4 452.6,194.7 446.7,181.7 414.7,179.3 408.7,172.2 389.8,185.3 369.6,190.0" fill="#e9dcbb" stroke="#a2977a" stroke-width="0.6"/>
<polygon id="ver" points="439.6,276.5 437.2,278.9 425.3,278.9 407.6,275.3 405.2,284.8 409.9,291.9 414.7,319.2 421.8,320.4 428.9,313.3 453.8,308.5 457.3,301.4 470.4,308.5 462.1,308.5 463.3,319.2 466.8,325.1 470.4,325.1 473.9,315.6 477.5,314.4 476.3,305.0 485.8,305.0 489.3,295.5 477.5,294.3 462.1,278.9 443.1,278.9" fill="#e9dcbb" stroke="#a2977a" stroke-width="0.6"/>
<polygon id="vie" points="309.2,226.7 291.4,231.5 290.2,235.0 267.7,254.0 268.9,263.5 283.1,286.0 280.7,296.7 287.9,305.0 299.7,309.7 308.0,299.0 319.9,302.6 322.2,297.9 323.4,291.9 318.7,288.4 313.9,276.5 322.2,250.4 315.1,243.3 317.5,235.0" fill="#e9dcbb" stroke="#a2977a" stroke-width="0.6"/>
<polygon id="vin" points="464.4,225.6 469.2,225.6 483.4,235.0 494.1,235.0 497.6,229.1 508.3,231.5 514.2,230.3 519.0,236.2 527.3,236.2 539.1,245.7 558.1,246.9 562.8,244.5 567.6,248.1 564.0,255.2 565.2,288.4 559.3,294.3 560.4,300.2 553.3,302.6 539.1,302.6 527.3,293.1 514.2,288.4 497.6,294.3 477.5,294.3 462.1,278.9 443.1,278.9 436.0,269.4 438.4,239.8 444.3,233.9 464.4,231.5" fill="#e9dcbb" stroke="#a2977a" stroke-width="0.6"/>
<polygon id="vis" points="639.9,155.6 673.0,141.4 696.7,137.9 722.8,141.4 725.2,147.3 720.4,162.7 724.0,172.2 728.7,175.8 731.1,198.3 737.0,203.0 738.2,210.1 746.5,213.7 766.7,233.9 773.8,233.9 790.4,242.1 793.9,255.2 775.0,257.6 766.7,261.1 746.5,262.3 726.4,270.6 718.1,276.5 706.2,280.1 695.6,280.1 684.9,276.5 683.7,273.0 671.9,274.1 670.7,281.3 665.9,284.8 652.9,286.0 633.9,268.2 620.9,263.5 625.6,238.6 623.3,230.3 639.9,227.9 644.6,223.2 639.9,212.5 632.7,206.6 642.2,195.9 632.7,192.4 622.1,167.5" fill="#e9dcbb" stroke="#a2977a" stroke-width="0.6"/>
</g>
<g id="coastline" style="pointer-events:none;fill:none;stroke-linecap:round"><path d="M421.8,325.1L418.2,327.5 M731.1,648.7L744.1,653.4 M744.1,653.4L752.4,653.4 M752.4,653.4L760.7,646.3 M760.7,646.3L765.5,646.3 M765.5,646.3L782.1,638.0 M782.1,638.0L798.7,640.4 M798.7,640.4L799.9,647.5 M799.9,647.5L804.6,649.9 M804.6,649.9L808.1,646.3 M808.1,646.3L830.7,647.5 M830.7,647.5L835.4,649.9 M835.4,649.9L839.0,646.3 M891.1,668.8L726.4,668.8 M353.0,352.4L359.0,352.4 M359.0,352.4L367.3,346.4 M367.3,346.4L368.4,341.7 M368.4,341.7L372.0,339.3 M477.5,389.1L460.9,354.7 M460.9,354.7L453.8,350.0 M796.3,524.2L811.7,538.4 M811.7,538.4L818.8,539.6 M818.8,539.6L827.1,539.6 M827.1,539.6L844.9,530.1 M844.9,530.1L849.6,523.0 M849.6,523.0L869.8,529.0 M869.8,529.0L874.5,523.0 M874.5,523.0L880.4,525.4 M880.4,525.4L878.1,534.9 M878.1,534.9L871.0,536.1 M871.0,536.1L869.8,539.6 M869.8,539.6L874.5,544.4 M874.5,544.4L871.0,551.5 M871.0,551.5L875.7,557.4 M201.3,316.8L199.0,310.9 M199.0,310.9L191.9,307.3 M191.9,307.3L191.9,295.5 M191.9,295.5L187.1,287.2 M187.1,287.2L178.8,284.8 M178.8,284.8L176.4,274.1 M176.4,274.1L171.7,268.2 M171.7,268.2L176.4,267.0 M176.4,267.0L174.1,261.1 M239.3,251.6L249.9,249.3 M209.6,318.0L201.3,316.8 M637.5,531.3L642.2,531.3 M642.2,531.3L633.9,510.0 M633.9,510.0L639.9,510.0 M639.9,510.0L643.4,514.7 M643.4,514.7L647.0,507.6 M647.0,507.6L639.9,500.5 M639.9,500.5L645.8,495.8 M645.8,495.8L656.4,505.3 M656.4,505.3L657.6,498.1 M657.6,498.1L651.7,487.5 M651.7,487.5L643.4,485.1 M643.4,485.1L642.2,479.2 M642.2,479.2L632.7,474.4 M601.9,485.1L601.9,488.7 M601.9,488.7L624.4,485.1 M624.4,485.1L633.9,491.0 M633.9,491.0L636.3,494.6 M636.3,494.6L623.3,489.9 M623.3,489.9L607.9,489.9 M607.9,489.9L600.7,495.8 M600.7,495.8L609.0,508.8 M609.0,508.8L609.0,514.7 M609.0,514.7L615.0,524.2 M615.0,524.2L617.3,524.2 M617.3,524.2L618.5,518.3 M618.5,518.3L622.1,519.5 M622.1,519.5L626.8,531.3 M626.8,531.3L630.4,521.9 M630.4,521.9L637.5,531.3 M112.4,538.4L119.6,531.3 M119.6,531.3L126.7,530.1 M126.7,530.1L130.2,525.4 M130.2,525.4L158.7,524.2 M158.7,524.2L163.4,526.6 M163.4,526.6L167.0,520.7 M167.0,520.7L176.4,523.0 M176.4,523.0L178.8,514.7 M178.8,514.7L183.6,508.8 M183.6,508.8L197.8,506.4 M197.8,506.4L197.8,498.1 M197.8,498.1L203.7,483.9 M203.7,483.9L213.2,480.4 M213.2,480.4L215.6,476.8 M215.6,476.8L209.6,472.1 M209.6,472.1L206.1,463.8 M180.0,421.1L168.1,425.9 M80.4,513.6L95.9,520.7 M95.9,520.7L104.1,538.4 M104.1,538.4L112.4,538.4 M248.7,153.3L258.2,153.3 M258.2,153.3L273.6,146.1 M240.4,182.9L245.2,171.0 M245.2,171.0L245.2,156.8 M245.2,156.8L248.7,153.3 M553.3,440.1L532.0,428.2 M532.0,428.2L532.0,423.5 M532.0,423.5L521.3,416.4 M521.3,416.4L515.4,417.6 M515.4,417.6L510.7,414.0 M520.1,447.2L524.9,442.4 M524.9,442.4L539.1,446.0 M539.1,446.0L542.7,448.4 M542.7,448.4L542.7,453.1 M542.7,453.1L548.6,456.7 M548.6,456.7L553.3,456.7 M553.3,456.7L556.9,446.0 M556.9,446.0L553.3,440.1 M209.6,318.0L200.1,318.0 M200.1,318.0L194.2,310.9 M194.2,310.9L191.9,310.9 M191.9,310.9L189.5,331.0 M189.5,331.0L193.0,333.4 M193.0,333.4L189.5,335.8 M189.5,335.8L187.1,359.5 M712.1,431.8L718.1,427.0 M718.1,427.0L752.4,427.0 M752.4,427.0L753.6,430.6 M753.6,430.6L744.1,431.8 M744.1,431.8L758.4,442.4 M792.7,415.2L789.2,419.9 M789.2,419.9L750.1,417.6 M750.1,417.6L743.0,410.4 M743.0,410.4L731.1,406.9 M731.1,406.9L731.1,402.1 M705.0,425.9L750.1,417.6 M750.1,417.6L739.4,427.0 M739.4,427.0L744.1,427.0 M744.1,427.0L753.6,417.6 M753.6,417.6L712.1,431.8 M487.0,442.4L481.0,437.7 M481.0,437.7L477.5,437.7 M477.5,437.7L458.5,421.1 M458.5,421.1L462.1,412.8 M369.6,517.1L361.3,520.7 M361.3,520.7L351.9,514.7 M351.9,514.7L344.7,514.7 M344.7,514.7L342.4,518.3 M342.4,518.3L328.1,517.1 M328.1,517.1L325.8,521.9 M325.8,521.9L317.5,526.6 M402.8,587.0L402.8,581.1 M402.8,581.1L418.2,563.3 M418.2,563.3L419.4,555.0 M419.4,555.0L414.7,545.6 M414.7,545.6L408.7,539.6 M408.7,539.6L421.8,520.7 M421.8,520.7L421.8,517.1 M421.8,517.1L417.0,517.1 M417.0,517.1L406.4,523.0 M406.4,523.0L402.8,520.7 M402.8,520.7L406.4,517.1 M406.4,517.1L402.8,511.2 M402.8,511.2L392.1,510.0 M392.1,510.0L387.4,514.7 M387.4,514.7L380.3,514.7 M380.3,514.7L375.6,518.3 M375.6,518.3L369.6,517.1 M507.1,169.9L505.9,180.5 M825.9,294.3L829.5,299.0 M829.5,299.0L821.2,301.4 M821.2,301.4L818.8,306.1 M818.8,306.1L810.5,310.9 M810.5,310.9L810.5,314.4 M810.5,314.4L818.8,314.4 M818.8,314.4L829.5,322.7 M829.5,322.7L825.9,334.6 M825.9,334.6L835.4,340.5 M835.4,340.5L841.3,340.5 M841.3,340.5L850.8,329.9 M850.8,329.9L857.9,328.7 M857.9,328.7L863.9,323.9 M863.9,323.9L880.4,323.9 M880.4,323.9L884.0,319.2 M884.0,319.2L886.4,309.7 M886.4,309.7L882.8,307.3 M882.8,307.3L876.9,312.1 M876.9,312.1L866.2,314.4 M866.2,314.4L846.1,296.7 M846.1,296.7L853.2,293.1 M286.7,137.9L292.6,139.0 M315.1,128.4L334.1,133.1 M355.4,185.3L368.4,185.3 M273.6,146.1L277.2,142.6 M277.2,142.6L285.5,141.4 M285.5,141.4L281.9,137.9 M281.9,137.9L286.7,137.9 M592.4,323.9L599.6,331.0 M575.9,408.1L571.1,402.1 M571.1,402.1L561.6,398.6 M561.6,398.6L558.1,393.9 M558.1,393.9L560.4,389.1 M587.7,315.6L592.4,323.9 M560.4,389.1L537.9,378.4 M537.9,378.4L537.9,371.3 M537.9,371.3L515.4,363.0 M515.4,363.0L511.9,364.2 M511.9,364.2L497.6,353.6 M497.6,353.6L498.8,346.4 M498.8,346.4L485.8,332.2 M485.8,332.2L489.3,323.9 M489.3,323.9L487.0,316.8 M487.0,316.8L477.5,314.4 M155.1,66.7L145.6,56.1 M145.6,56.1L143.3,43.0 M143.3,43.0L146.8,37.1 M146.8,37.1L156.3,33.6 M156.3,33.6L168.1,31.2 M168.1,31.2L181.2,33.6 M181.2,33.6L185.9,44.2 M185.9,44.2L196.6,46.6 M196.6,46.6L206.1,65.6 M206.1,65.6L208.4,73.9 M152.7,137.9L146.8,142.6 M146.8,142.6L140.9,142.6 M140.9,142.6L135.0,137.9 M135.0,137.9L130.2,139.0 M130.2,139.0L123.1,131.9 M123.1,131.9L114.8,133.1 M114.8,133.1L111.3,130.7 M111.3,130.7L117.2,124.8 M117.2,124.8L135.0,115.3 M135.0,115.3L130.2,109.4 M130.2,109.4L131.4,98.7 M131.4,98.7L123.1,98.7 M123.1,98.7L127.9,89.3 M127.9,89.3L132.6,89.3 M132.6,89.3L138.5,85.7 M138.5,85.7L148.0,85.7 M148.0,85.7L152.7,79.8 M152.7,79.8L150.4,69.1 M150.4,69.1L155.1,66.7 M292.6,139.0L284.3,135.5 M284.3,135.5L290.2,120.1 M290.2,120.1L297.3,116.5 M297.3,116.5L300.9,97.6 M300.9,97.6L308.0,103.5 M308.0,103.5L304.4,107.0 M304.4,107.0L306.8,118.9 M306.8,118.9L315.1,118.9 M315.1,118.9L321.0,107.0 M321.0,107.0L317.5,102.3 M317.5,102.3L311.6,101.1 M311.6,101.1L310.4,91.6 M310.4,91.6L321.0,84.5 M321.0,84.5L336.4,82.1 M336.4,82.1L349.5,90.4 M752.4,437.7L740.6,441.3 M740.6,441.3L712.1,441.3 M712.1,441.3L695.6,448.4 M695.6,448.4L695.6,460.2 M695.6,460.2L701.5,457.9 M701.5,457.9L706.2,460.2 M706.2,460.2L706.2,467.3 M706.2,467.3L712.1,475.6 M796.3,514.7L833.0,515.9 M372.0,339.3L380.3,340.5 M380.3,340.5L401.6,350.0 M413.5,335.8L418.2,327.5 M391.0,30.0L391.0,34.7 M391.0,34.7L401.6,34.7 M401.6,34.7L398.1,45.4 M398.1,45.4L409.9,51.3 M409.9,51.3L419.4,50.1 M419.4,50.1L419.4,59.6 M419.4,59.6L413.5,64.4 M413.5,64.4L423.0,66.7 M423.0,66.7L431.3,59.6 M431.3,59.6L437.2,59.6 M437.2,59.6L450.2,47.8 M450.2,47.8L462.1,53.7 M462.1,53.7L469.2,67.9 M469.2,67.9L477.5,72.7 M477.5,72.7L483.4,81.0 M381.5,66.7L370.8,66.7 M370.8,66.7L373.2,51.3 M373.2,51.3L376.7,49.0 M376.7,49.0L370.8,30.0 M370.8,30.0L391.0,30.0 M483.4,81.0L484.6,65.6 M484.6,65.6L514.2,53.7 M514.2,53.7L519.0,45.4 M519.0,45.4L533.2,38.3 M533.2,38.3L552.1,35.9 M552.1,35.9L555.7,39.5 M555.7,39.5L553.3,40.7 M553.3,40.7L555.7,46.6 M555.7,46.6L562.8,51.3 M562.8,51.3L571.1,50.1 M571.1,50.1L572.3,52.5 M572.3,52.5L588.9,43.0 M588.9,43.0L579.4,39.5 M579.4,39.5L581.8,30.0 M581.8,30.0L650.5,30.0 M961.0,201.9L961.0,30.0 M961.0,30.0L650.5,30.0 M760.7,318.0L758.4,303.8 M758.4,303.8L764.3,303.8 M764.3,303.8L779.7,290.7 M779.7,290.7L778.5,284.8 M778.5,284.8L792.7,278.9 M792.7,278.9L805.8,282.4 M805.8,282.4L797.5,286.0 M797.5,286.0L803.4,290.7 M803.4,290.7L825.9,294.3 M587.7,315.6L599.6,331.0 M729.9,310.9L718.1,305.0 M349.5,90.4L342.4,82.1 M342.4,82.1L345.9,76.2 M345.9,76.2L360.1,72.7 M360.1,72.7L363.7,79.8 M363.7,79.8L370.8,79.8 M370.8,79.8L369.6,72.7 M369.6,72.7L372.0,67.9 M372.0,67.9L383.9,69.1 M396.9,143.8L388.6,136.7 M158.7,171.0L151.6,166.3 M151.6,166.3L144.4,168.7 M144.4,168.7L143.3,175.8 M143.3,175.8L136.1,180.5 M136.1,180.5L127.9,175.8 M127.9,175.8L120.7,177.0 M120.7,177.0L112.4,185.3 M112.4,185.3L101.8,185.3 M101.8,185.3L103.0,181.7 M103.0,181.7L111.3,179.3 M111.3,179.3L116.0,173.4 M116.0,173.4L121.9,171.0 M121.9,171.0L126.7,154.4 M126.7,154.4L135.0,148.5 M135.0,148.5L148.0,148.5 M148.0,148.5L155.1,141.4 M155.1,141.4L152.7,137.9 M225.0,136.7L219.1,141.4 M219.1,141.4L223.9,143.8 M223.9,143.8L234.5,142.6 M234.5,142.6L234.5,148.5 M234.5,148.5L231.0,153.3 M231.0,153.3L214.4,162.7 M214.4,162.7L170.5,165.1 M170.5,165.1L167.0,171.0 M167.0,171.0L158.7,171.0 M174.1,261.1L165.8,255.2 M165.8,255.2L148.0,249.3 M148.0,249.3L140.9,244.5 M140.9,244.5L132.6,246.9 M132.6,246.9L127.9,238.6 M127.9,238.6L131.4,237.4 M131.4,237.4L127.9,235.0 M127.9,235.0L133.8,233.9 M133.8,233.9L125.5,227.9 M125.5,227.9L136.1,222.0 M136.1,222.0L144.4,222.0 M144.4,222.0L150.4,216.1 M150.4,216.1L157.5,216.1 M157.5,216.1L158.7,219.6 M158.7,219.6L164.6,223.2 M164.6,223.2L167.0,220.8 M167.0,220.8L177.6,220.8 M177.6,220.8L181.2,224.4 M181.2,224.4L187.1,222.0 M187.1,222.0L185.9,219.6 M235.7,250.4L239.3,251.6 M235.7,250.4L249.9,249.3 M731.1,648.7L697.9,641.6 M697.9,641.6L696.7,638.0 M696.7,638.0L680.1,638.0 M680.1,638.0L673.0,628.5 M673.0,628.5L654.1,627.3 M654.1,627.3L637.5,621.4 M637.5,621.4L641.0,617.9 M641.0,617.9L639.9,615.5 M639.9,615.5L631.6,613.1 M631.6,613.1L625.6,608.4 M625.6,608.4L611.4,608.4 M611.4,608.4L588.9,622.6 M588.9,622.6L581.8,635.6 M581.8,635.6L583.0,651.0 M583.0,651.0L566.4,662.9 M566.4,668.8L726.4,668.8 M575.9,408.1L572.3,410.4 M572.3,410.4L573.5,436.5 M573.5,436.5L571.1,440.1 M571.1,440.1L580.6,450.7 M580.6,450.7L575.9,454.3 M575.9,454.3L577.0,456.7 M577.0,456.7L583.0,455.5 M583.0,455.5L591.3,468.5 M591.3,468.5L591.3,473.3 M591.3,473.3L596.0,475.6 M596.0,475.6L601.9,485.1 M632.7,474.4L638.7,465.0 M638.7,465.0L639.9,457.9 M639.9,457.9L630.4,446.0 M630.4,446.0L631.6,437.7 M631.6,437.7L636.3,437.7 M636.3,437.7L648.1,451.9 M648.1,451.9L647.0,446.0 M647.0,446.0L652.9,449.6 M652.9,449.6L655.3,442.4 M655.3,442.4L664.7,444.8 M664.7,444.8L661.2,438.9 M661.2,438.9L654.1,436.5 M654.1,436.5L654.1,429.4 M654.1,429.4L668.3,425.9 M290.2,361.9L303.3,365.4 M303.3,365.4L306.8,363.0 M306.8,363.0L316.3,366.6 M316.3,366.6L319.9,371.3 M319.9,371.3L327.0,372.5 M327.0,372.5L335.3,369.0 M335.3,369.0L341.2,358.3 M341.2,358.3L349.5,357.1 M349.5,357.1L353.0,352.4 M317.5,526.6L303.3,520.7 M303.3,520.7L289.0,520.7 M289.0,520.7L279.6,525.4 M279.6,525.4L247.6,529.0 M247.6,529.0L229.8,533.7 M229.8,533.7L217.9,539.6 M217.9,539.6L214.4,545.6 M214.4,545.6L204.9,543.2 M204.9,543.2L175.3,561.0 M175.3,561.0L167.0,562.1 M167.0,562.1L158.7,556.2 M158.7,556.2L123.1,556.2 M123.1,556.2L112.4,544.4 M112.4,544.4L107.7,546.7 M107.7,546.7L103.0,549.1 M103.0,549.1L101.8,561.0 M101.8,561.0L87.6,588.2 M87.6,588.2L68.6,596.5 M68.6,596.5L53.2,607.2 M53.2,607.2L42.5,622.6 M42.5,622.6L37.8,623.8 M37.8,623.8L37.8,668.8 M37.8,668.8L308.0,668.8 M225.0,136.7L232.1,133.1 M232.1,133.1L240.4,117.7 M240.4,117.7L238.1,101.1 M238.1,101.1L229.8,96.4 M229.8,96.4L220.3,96.4 M220.3,96.4L217.9,99.9 M217.9,99.9L213.2,101.1 M213.2,101.1L210.8,98.7 M210.8,98.7L215.6,94.0 M215.6,94.0L215.6,89.3 M215.6,89.3L209.6,81.0 M209.6,81.0L208.4,73.9 M712.1,475.6L706.2,476.8 M706.2,476.8L706.2,482.7 M706.2,482.7L699.1,480.4 M699.1,480.4L697.9,488.7 M697.9,488.7L701.5,492.2 M701.5,492.2L712.1,495.8 M712.1,495.8L712.1,504.1 M712.1,504.1L718.1,511.2 M718.1,511.2L716.9,517.1 M716.9,517.1L732.3,515.9 M732.3,515.9L728.7,526.6 M728.7,526.6L737.0,523.0 M737.0,523.0L741.8,526.6 M741.8,526.6L747.7,524.2 M747.7,524.2L751.3,534.9 M751.3,534.9L764.3,537.3 M764.3,537.3L766.7,533.7 M766.7,533.7L772.6,534.9 M772.6,534.9L775.0,532.5 M775.0,532.5L777.3,520.7 M777.3,520.7L796.3,524.2 M270.1,387.9L267.7,380.8 M267.7,380.8L274.8,370.1 M274.8,370.1L290.2,361.9 M402.8,587.0L405.2,594.1 M405.2,594.1L419.4,594.1 M419.4,594.1L424.1,602.4 M424.1,602.4L436.0,603.6 M436.0,603.6L446.7,611.9 M446.7,611.9L475.1,613.1 M475.1,613.1L483.4,619.0 M483.4,619.0L495.3,621.4 M495.3,621.4L497.6,623.8 M497.6,623.8L496.4,632.1 M496.4,632.1L502.4,640.4 M502.4,640.4L535.6,651.0 M535.6,651.0L541.5,651.0 M541.5,651.0L559.3,661.7 M559.3,661.7L566.4,662.9 M566.4,668.8L308.0,668.8 M57.9,424.7L57.9,435.3 M57.9,435.3L53.2,442.4 M53.2,442.4L54.4,449.6 M54.4,449.6L44.9,466.1 M44.9,466.1L49.6,487.5 M49.6,487.5L53.2,483.9 M53.2,483.9L56.7,506.4 M56.7,506.4L50.8,521.9 M50.8,521.9L61.5,517.1 M61.5,517.1L73.3,521.9 M73.3,521.9L82.8,515.9 M875.7,557.4L871.0,564.5 M871.0,564.5L875.7,571.6 M875.7,571.6L868.6,578.7 M868.6,578.7L867.4,596.5 M867.4,596.5L862.7,606.0 M862.7,606.0L854.4,614.3 M854.4,614.3L848.4,639.2 M848.4,639.2L839.0,646.3 M891.1,668.8L961.0,668.8 M961.0,668.8L961.0,507.6 M853.2,293.1L867.4,286.0 M867.4,286.0L872.1,278.9 M872.1,278.9L888.7,277.7 M888.7,277.7L924.3,261.1 M924.3,261.1L926.7,263.5 M926.7,263.5L937.3,261.1 M937.3,261.1L936.1,269.4 M936.1,269.4L905.3,277.7 M905.3,277.7L920.7,290.7 M920.7,290.7L920.7,294.3 M920.7,294.3L912.4,297.9 M912.4,297.9L905.3,307.3 M905.3,307.3L907.7,313.3 M907.7,313.3L904.1,315.6 M904.1,315.6L897.0,314.4 M897.0,314.4L893.5,319.2 M893.5,319.2L903.0,329.9 M903.0,329.9L907.7,328.7 M907.7,328.7L908.9,334.6 M908.9,334.6L925.5,342.9 M925.5,342.9L961.0,373.7 M961.0,373.7L961.0,201.9 M961.0,419.9L940.9,421.1 M940.9,421.1L931.4,418.7 M931.4,418.7L923.1,425.9 M923.1,425.9L913.6,425.9 M913.6,425.9L906.5,421.1 M906.5,421.1L879.3,414.0 M879.3,414.0L875.7,405.7 M875.7,405.7L866.2,406.9 M866.2,406.9L860.3,398.6 M860.3,398.6L831.9,398.6 M831.9,398.6L825.9,396.2 M825.9,396.2L792.7,415.2 M961.0,507.6L961.0,419.9 M453.8,350.0L450.2,346.4 M450.2,346.4L444.3,345.3 M444.3,345.3L444.3,325.1 M444.3,325.1L439.6,320.4 M439.6,320.4L440.7,310.9 M421.8,325.1L413.5,335.8 M436.0,269.4L439.6,276.5 M487.0,442.4L498.8,455.5 M498.8,455.5L507.1,479.2 M507.1,479.2L498.8,488.7 M498.8,488.7L500.0,497.0 M500.0,497.0L507.1,497.0 M507.1,497.0L510.7,489.9 M510.7,489.9L515.4,487.5 M515.4,487.5L519.0,475.6 M519.0,475.6L528.4,474.4 M528.4,474.4L528.4,466.1 M528.4,466.1L527.3,462.6 M527.3,462.6L519.0,457.9 M519.0,457.9L520.1,447.2 M401.6,150.9L396.9,143.8 M458.5,108.2L473.9,113.0 M426.5,393.9L427.7,402.1 M427.7,402.1L446.7,415.2 M446.7,415.2L458.5,417.6 M458.5,417.6L462.1,412.8 M185.9,219.6L184.7,206.6 M184.7,206.6L178.8,191.2 M178.8,191.2L190.7,191.2 M190.7,191.2L193.0,193.6 M193.0,193.6L190.7,198.3 M190.7,198.3L208.4,203.0 M208.4,203.0L217.9,200.7 M217.9,200.7L217.9,191.2 M217.9,191.2L220.3,188.8 M220.3,188.8L240.4,182.9 M206.1,463.8L206.1,456.7 M206.1,456.7L223.9,433.0 M223.9,433.0L228.6,433.0 M228.6,433.0L232.1,429.4 M232.1,429.4L228.6,428.2 M228.6,428.2L236.9,418.7 M236.9,418.7L249.9,415.2 M249.9,415.2L274.8,399.8 M274.8,399.8L271.3,396.2 M271.3,396.2L270.1,387.9 M183.6,417.6L180.0,421.1 M510.7,414.0L504.7,411.6 M504.7,411.6L510.7,402.1 M510.7,402.1L507.1,399.8 M507.1,399.8L489.3,397.4 M489.3,397.4L477.5,389.1 M760.7,318.0L759.6,331.0 M759.6,331.0L751.3,329.9 M751.3,329.9L745.3,332.2 M745.3,332.2L741.8,339.3 M741.8,339.3L739.4,364.2 M739.4,364.2L731.1,364.2 M731.1,364.2L727.6,369.0 M727.6,369.0L727.6,380.8 M727.6,380.8L724.0,386.7 M724.0,386.7L731.1,402.1 M436.0,502.9L447.9,510.0 M447.9,510.0L466.8,515.9 M466.8,515.9L479.9,527.8 M479.9,527.8L485.8,529.0 M485.8,529.0L485.8,506.4 M485.8,506.4L489.3,498.1 M489.3,498.1L489.3,489.9 M489.3,489.9L471.6,494.6 M471.6,494.6L459.7,494.6 M459.7,494.6L450.2,491.0 M450.2,491.0L444.3,493.4 M444.3,493.4L441.9,492.2 M441.9,492.2L436.0,498.1 M436.0,498.1L436.0,502.9 M57.9,424.7L54.4,395.0 M54.4,395.0L56.7,384.4 M56.7,384.4L52.0,382.0 M52.0,382.0L46.1,372.5 M46.1,372.5L53.2,366.6 M53.2,366.6L61.5,366.6 M61.5,366.6L66.2,363.0 M66.2,363.0L65.0,359.5 M65.0,359.5L73.3,354.7 M73.3,354.7L81.6,355.9 M81.6,355.9L88.7,360.7 M88.7,360.7L94.7,358.3 M94.7,358.3L110.1,358.3 M110.1,358.3L130.2,361.9 M130.2,361.9L149.2,359.5 M149.2,359.5L153.9,363.0 M153.9,363.0L163.4,360.7 M163.4,360.7L167.0,364.2 M167.0,364.2L187.1,359.5 M183.6,417.6L168.1,425.9 M388.6,136.7L401.6,150.9 M408.7,172.2L402.8,174.6 M366.1,184.1L355.4,185.3 M668.3,425.9L676.6,423.5 M676.6,423.5L682.5,427.0 M682.5,427.0L693.2,428.2 M693.2,428.2L694.4,433.0 M694.4,433.0L700.3,434.1 M700.3,434.1L693.2,441.3 M693.2,441.3L699.1,441.3 M699.1,441.3L712.1,431.8 M712.1,431.8L705.0,425.9 M401.6,350.0L401.6,359.5 M401.6,359.5L406.4,374.9 M406.4,374.9L412.3,380.8 M412.3,380.8L417.0,391.5 M417.0,391.5L426.5,393.9 M369.6,190.0L368.4,203.0 M428.9,313.3L453.8,308.5 M453.8,308.5L457.3,301.4 M457.3,301.4L470.4,308.5 M470.4,308.5L462.1,308.5 M462.1,308.5L463.3,319.2 M463.3,319.2L466.8,325.1 M466.8,325.1L470.4,325.1 M470.4,325.1L473.9,315.6 M473.9,315.6L477.5,314.4 M489.3,295.5L477.5,294.3 M443.1,278.9L439.6,276.5 M497.6,229.1L508.3,231.5 M497.6,294.3L477.5,294.3 M443.1,278.9L436.0,269.4" stroke="#f4ecd6" stroke-width="3.2" opacity="0.75"/><path d="M421.8,325.1L418.2,327.5 M731.1,648.7L744.1,653.4 M744.1,653.4L752.4,653.4 M752.4,653.4L760.7,646.3 M760.7,646.3L765.5,646.3 M765.5,646.3L782.1,638.0 M782.1,638.0L798.7,640.4 M798.7,640.4L799.9,647.5 M799.9,647.5L804.6,649.9 M804.6,649.9L808.1,646.3 M808.1,646.3L830.7,647.5 M830.7,647.5L835.4,649.9 M835.4,649.9L839.0,646.3 M891.1,668.8L726.4,668.8 M353.0,352.4L359.0,352.4 M359.0,352.4L367.3,346.4 M367.3,346.4L368.4,341.7 M368.4,341.7L372.0,339.3 M477.5,389.1L460.9,354.7 M460.9,354.7L453.8,350.0 M796.3,524.2L811.7,538.4 M811.7,538.4L818.8,539.6 M818.8,539.6L827.1,539.6 M827.1,539.6L844.9,530.1 M844.9,530.1L849.6,523.0 M849.6,523.0L869.8,529.0 M869.8,529.0L874.5,523.0 M874.5,523.0L880.4,525.4 M880.4,525.4L878.1,534.9 M878.1,534.9L871.0,536.1 M871.0,536.1L869.8,539.6 M869.8,539.6L874.5,544.4 M874.5,544.4L871.0,551.5 M871.0,551.5L875.7,557.4 M201.3,316.8L199.0,310.9 M199.0,310.9L191.9,307.3 M191.9,307.3L191.9,295.5 M191.9,295.5L187.1,287.2 M187.1,287.2L178.8,284.8 M178.8,284.8L176.4,274.1 M176.4,274.1L171.7,268.2 M171.7,268.2L176.4,267.0 M176.4,267.0L174.1,261.1 M239.3,251.6L249.9,249.3 M209.6,318.0L201.3,316.8 M637.5,531.3L642.2,531.3 M642.2,531.3L633.9,510.0 M633.9,510.0L639.9,510.0 M639.9,510.0L643.4,514.7 M643.4,514.7L647.0,507.6 M647.0,507.6L639.9,500.5 M639.9,500.5L645.8,495.8 M645.8,495.8L656.4,505.3 M656.4,505.3L657.6,498.1 M657.6,498.1L651.7,487.5 M651.7,487.5L643.4,485.1 M643.4,485.1L642.2,479.2 M642.2,479.2L632.7,474.4 M601.9,485.1L601.9,488.7 M601.9,488.7L624.4,485.1 M624.4,485.1L633.9,491.0 M633.9,491.0L636.3,494.6 M636.3,494.6L623.3,489.9 M623.3,489.9L607.9,489.9 M607.9,489.9L600.7,495.8 M600.7,495.8L609.0,508.8 M609.0,508.8L609.0,514.7 M609.0,514.7L615.0,524.2 M615.0,524.2L617.3,524.2 M617.3,524.2L618.5,518.3 M618.5,518.3L622.1,519.5 M622.1,519.5L626.8,531.3 M626.8,531.3L630.4,521.9 M630.4,521.9L637.5,531.3 M112.4,538.4L119.6,531.3 M119.6,531.3L126.7,530.1 M126.7,530.1L130.2,525.4 M130.2,525.4L158.7,524.2 M158.7,524.2L163.4,526.6 M163.4,526.6L167.0,520.7 M167.0,520.7L176.4,523.0 M176.4,523.0L178.8,514.7 M178.8,514.7L183.6,508.8 M183.6,508.8L197.8,506.4 M197.8,506.4L197.8,498.1 M197.8,498.1L203.7,483.9 M203.7,483.9L213.2,480.4 M213.2,480.4L215.6,476.8 M215.6,476.8L209.6,472.1 M209.6,472.1L206.1,463.8 M180.0,421.1L168.1,425.9 M80.4,513.6L95.9,520.7 M95.9,520.7L104.1,538.4 M104.1,538.4L112.4,538.4 M248.7,153.3L258.2,153.3 M258.2,153.3L273.6,146.1 M240.4,182.9L245.2,171.0 M245.2,171.0L245.2,156.8 M245.2,156.8L248.7,153.3 M553.3,440.1L532.0,428.2 M532.0,428.2L532.0,423.5 M532.0,423.5L521.3,416.4 M521.3,416.4L515.4,417.6 M515.4,417.6L510.7,414.0 M520.1,447.2L524.9,442.4 M524.9,442.4L539.1,446.0 M539.1,446.0L542.7,448.4 M542.7,448.4L542.7,453.1 M542.7,453.1L548.6,456.7 M548.6,456.7L553.3,456.7 M553.3,456.7L556.9,446.0 M556.9,446.0L553.3,440.1 M209.6,318.0L200.1,318.0 M200.1,318.0L194.2,310.9 M194.2,310.9L191.9,310.9 M191.9,310.9L189.5,331.0 M189.5,331.0L193.0,333.4 M193.0,333.4L189.5,335.8 M189.5,335.8L187.1,359.5 M712.1,431.8L718.1,427.0 M718.1,427.0L752.4,427.0 M752.4,427.0L753.6,430.6 M753.6,430.6L744.1,431.8 M744.1,431.8L758.4,442.4 M792.7,415.2L789.2,419.9 M789.2,419.9L750.1,417.6 M750.1,417.6L743.0,410.4 M743.0,410.4L731.1,406.9 M731.1,406.9L731.1,402.1 M705.0,425.9L750.1,417.6 M750.1,417.6L739.4,427.0 M739.4,427.0L744.1,427.0 M744.1,427.0L753.6,417.6 M753.6,417.6L712.1,431.8 M487.0,442.4L481.0,437.7 M481.0,437.7L477.5,437.7 M477.5,437.7L458.5,421.1 M458.5,421.1L462.1,412.8 M369.6,517.1L361.3,520.7 M361.3,520.7L351.9,514.7 M351.9,514.7L344.7,514.7 M344.7,514.7L342.4,518.3 M342.4,518.3L328.1,517.1 M328.1,517.1L325.8,521.9 M325.8,521.9L317.5,526.6 M402.8,587.0L402.8,581.1 M402.8,581.1L418.2,563.3 M418.2,563.3L419.4,555.0 M419.4,555.0L414.7,545.6 M414.7,545.6L408.7,539.6 M408.7,539.6L421.8,520.7 M421.8,520.7L421.8,517.1 M421.8,517.1L417.0,517.1 M417.0,517.1L406.4,523.0 M406.4,523.0L402.8,520.7 M402.8,520.7L406.4,517.1 M406.4,517.1L402.8,511.2 M402.8,511.2L392.1,510.0 M392.1,510.0L387.4,514.7 M387.4,514.7L380.3,514.7 M380.3,514.7L375.6,518.3 M375.6,518.3L369.6,517.1 M507.1,169.9L505.9,180.5 M825.9,294.3L829.5,299.0 M829.5,299.0L821.2,301.4 M821.2,301.4L818.8,306.1 M818.8,306.1L810.5,310.9 M810.5,310.9L810.5,314.4 M810.5,314.4L818.8,314.4 M818.8,314.4L829.5,322.7 M829.5,322.7L825.9,334.6 M825.9,334.6L835.4,340.5 M835.4,340.5L841.3,340.5 M841.3,340.5L850.8,329.9 M850.8,329.9L857.9,328.7 M857.9,328.7L863.9,323.9 M863.9,323.9L880.4,323.9 M880.4,323.9L884.0,319.2 M884.0,319.2L886.4,309.7 M886.4,309.7L882.8,307.3 M882.8,307.3L876.9,312.1 M876.9,312.1L866.2,314.4 M866.2,314.4L846.1,296.7 M846.1,296.7L853.2,293.1 M286.7,137.9L292.6,139.0 M315.1,128.4L334.1,133.1 M355.4,185.3L368.4,185.3 M273.6,146.1L277.2,142.6 M277.2,142.6L285.5,141.4 M285.5,141.4L281.9,137.9 M281.9,137.9L286.7,137.9 M592.4,323.9L599.6,331.0 M575.9,408.1L571.1,402.1 M571.1,402.1L561.6,398.6 M561.6,398.6L558.1,393.9 M558.1,393.9L560.4,389.1 M587.7,315.6L592.4,323.9 M560.4,389.1L537.9,378.4 M537.9,378.4L537.9,371.3 M537.9,371.3L515.4,363.0 M515.4,363.0L511.9,364.2 M511.9,364.2L497.6,353.6 M497.6,353.6L498.8,346.4 M498.8,346.4L485.8,332.2 M485.8,332.2L489.3,323.9 M489.3,323.9L487.0,316.8 M487.0,316.8L477.5,314.4 M155.1,66.7L145.6,56.1 M145.6,56.1L143.3,43.0 M143.3,43.0L146.8,37.1 M146.8,37.1L156.3,33.6 M156.3,33.6L168.1,31.2 M168.1,31.2L181.2,33.6 M181.2,33.6L185.9,44.2 M185.9,44.2L196.6,46.6 M196.6,46.6L206.1,65.6 M206.1,65.6L208.4,73.9 M152.7,137.9L146.8,142.6 M146.8,142.6L140.9,142.6 M140.9,142.6L135.0,137.9 M135.0,137.9L130.2,139.0 M130.2,139.0L123.1,131.9 M123.1,131.9L114.8,133.1 M114.8,133.1L111.3,130.7 M111.3,130.7L117.2,124.8 M117.2,124.8L135.0,115.3 M135.0,115.3L130.2,109.4 M130.2,109.4L131.4,98.7 M131.4,98.7L123.1,98.7 M123.1,98.7L127.9,89.3 M127.9,89.3L132.6,89.3 M132.6,89.3L138.5,85.7 M138.5,85.7L148.0,85.7 M148.0,85.7L152.7,79.8 M152.7,79.8L150.4,69.1 M150.4,69.1L155.1,66.7 M292.6,139.0L284.3,135.5 M284.3,135.5L290.2,120.1 M290.2,120.1L297.3,116.5 M297.3,116.5L300.9,97.6 M300.9,97.6L308.0,103.5 M308.0,103.5L304.4,107.0 M304.4,107.0L306.8,118.9 M306.8,118.9L315.1,118.9 M315.1,118.9L321.0,107.0 M321.0,107.0L317.5,102.3 M317.5,102.3L311.6,101.1 M311.6,101.1L310.4,91.6 M310.4,91.6L321.0,84.5 M321.0,84.5L336.4,82.1 M336.4,82.1L349.5,90.4 M752.4,437.7L740.6,441.3 M740.6,441.3L712.1,441.3 M712.1,441.3L695.6,448.4 M695.6,448.4L695.6,460.2 M695.6,460.2L701.5,457.9 M701.5,457.9L706.2,460.2 M706.2,460.2L706.2,467.3 M706.2,467.3L712.1,475.6 M796.3,514.7L833.0,515.9 M372.0,339.3L380.3,340.5 M380.3,340.5L401.6,350.0 M413.5,335.8L418.2,327.5 M391.0,30.0L391.0,34.7 M391.0,34.7L401.6,34.7 M401.6,34.7L398.1,45.4 M398.1,45.4L409.9,51.3 M409.9,51.3L419.4,50.1 M419.4,50.1L419.4,59.6 M419.4,59.6L413.5,64.4 M413.5,64.4L423.0,66.7 M423.0,66.7L431.3,59.6 M431.3,59.6L437.2,59.6 M437.2,59.6L450.2,47.8 M450.2,47.8L462.1,53.7 M462.1,53.7L469.2,67.9 M469.2,67.9L477.5,72.7 M477.5,72.7L483.4,81.0 M381.5,66.7L370.8,66.7 M370.8,66.7L373.2,51.3 M373.2,51.3L376.7,49.0 M376.7,49.0L370.8,30.0 M370.8,30.0L391.0,30.0 M483.4,81.0L484.6,65.6 M484.6,65.6L514.2,53.7 M514.2,53.7L519.0,45.4 M519.0,45.4L533.2,38.3 M533.2,38.3L552.1,35.9 M552.1,35.9L555.7,39.5 M555.7,39.5L553.3,40.7 M553.3,40.7L555.7,46.6 M555.7,46.6L562.8,51.3 M562.8,51.3L571.1,50.1 M571.1,50.1L572.3,52.5 M572.3,52.5L588.9,43.0 M588.9,43.0L579.4,39.5 M579.4,39.5L581.8,30.0 M581.8,30.0L650.5,30.0 M961.0,201.9L961.0,30.0 M961.0,30.0L650.5,30.0 M760.7,318.0L758.4,303.8 M758.4,303.8L764.3,303.8 M764.3,303.8L779.7,290.7 M779.7,290.7L778.5,284.8 M778.5,284.8L792.7,278.9 M792.7,278.9L805.8,282.4 M805.8,282.4L797.5,286.0 M797.5,286.0L803.4,290.7 M803.4,290.7L825.9,294.3 M587.7,315.6L599.6,331.0 M729.9,310.9L718.1,305.0 M349.5,90.4L342.4,82.1 M342.4,82.1L345.9,76.2 M345.9,76.2L360.1,72.7 M360.1,72.7L363.7,79.8 M363.7,79.8L370.8,79.8 M370.8,79.8L369.6,72.7 M369.6,72.7L372.0,67.9 M372.0,67.9L383.9,69.1 M396.9,143.8L388.6,136.7 M158.7,171.0L151.6,166.3 M151.6,166.3L144.4,168.7 M144.4,168.7L143.3,175.8 M143.3,175.8L136.1,180.5 M136.1,180.5L127.9,175.8 M127.9,175.8L120.7,177.0 M120.7,177.0L112.4,185.3 M112.4,185.3L101.8,185.3 M101.8,185.3L103.0,181.7 M103.0,181.7L111.3,179.3 M111.3,179.3L116.0,173.4 M116.0,173.4L121.9,171.0 M121.9,171.0L126.7,154.4 M126.7,154.4L135.0,148.5 M135.0,148.5L148.0,148.5 M148.0,148.5L155.1,141.4 M155.1,141.4L152.7,137.9 M225.0,136.7L219.1,141.4 M219.1,141.4L223.9,143.8 M223.9,143.8L234.5,142.6 M234.5,142.6L234.5,148.5 M234.5,148.5L231.0,153.3 M231.0,153.3L214.4,162.7 M214.4,162.7L170.5,165.1 M170.5,165.1L167.0,171.0 M167.0,171.0L158.7,171.0 M174.1,261.1L165.8,255.2 M165.8,255.2L148.0,249.3 M148.0,249.3L140.9,244.5 M140.9,244.5L132.6,246.9 M132.6,246.9L127.9,238.6 M127.9,238.6L131.4,237.4 M131.4,237.4L127.9,235.0 M127.9,235.0L133.8,233.9 M133.8,233.9L125.5,227.9 M125.5,227.9L136.1,222.0 M136.1,222.0L144.4,222.0 M144.4,222.0L150.4,216.1 M150.4,216.1L157.5,216.1 M157.5,216.1L158.7,219.6 M158.7,219.6L164.6,223.2 M164.6,223.2L167.0,220.8 M167.0,220.8L177.6,220.8 M177.6,220.8L181.2,224.4 M181.2,224.4L187.1,222.0 M187.1,222.0L185.9,219.6 M235.7,250.4L239.3,251.6 M235.7,250.4L249.9,249.3 M731.1,648.7L697.9,641.6 M697.9,641.6L696.7,638.0 M696.7,638.0L680.1,638.0 M680.1,638.0L673.0,628.5 M673.0,628.5L654.1,627.3 M654.1,627.3L637.5,621.4 M637.5,621.4L641.0,617.9 M641.0,617.9L639.9,615.5 M639.9,615.5L631.6,613.1 M631.6,613.1L625.6,608.4 M625.6,608.4L611.4,608.4 M611.4,608.4L588.9,622.6 M588.9,622.6L581.8,635.6 M581.8,635.6L583.0,651.0 M583.0,651.0L566.4,662.9 M566.4,668.8L726.4,668.8 M575.9,408.1L572.3,410.4 M572.3,410.4L573.5,436.5 M573.5,436.5L571.1,440.1 M571.1,440.1L580.6,450.7 M580.6,450.7L575.9,454.3 M575.9,454.3L577.0,456.7 M577.0,456.7L583.0,455.5 M583.0,455.5L591.3,468.5 M591.3,468.5L591.3,473.3 M591.3,473.3L596.0,475.6 M596.0,475.6L601.9,485.1 M632.7,474.4L638.7,465.0 M638.7,465.0L639.9,457.9 M639.9,457.9L630.4,446.0 M630.4,446.0L631.6,437.7 M631.6,437.7L636.3,437.7 M636.3,437.7L648.1,451.9 M648.1,451.9L647.0,446.0 M647.0,446.0L652.9,449.6 M652.9,449.6L655.3,442.4 M655.3,442.4L664.7,444.8 M664.7,444.8L661.2,438.9 M661.2,438.9L654.1,436.5 M654.1,436.5L654.1,429.4 M654.1,429.4L668.3,425.9 M290.2,361.9L303.3,365.4 M303.3,365.4L306.8,363.0 M306.8,363.0L316.3,366.6 M316.3,366.6L319.9,371.3 M319.9,371.3L327.0,372.5 M327.0,372.5L335.3,369.0 M335.3,369.0L341.2,358.3 M341.2,358.3L349.5,357.1 M349.5,357.1L353.0,352.4 M317.5,526.6L303.3,520.7 M303.3,520.7L289.0,520.7 M289.0,520.7L279.6,525.4 M279.6,525.4L247.6,529.0 M247.6,529.0L229.8,533.7 M229.8,533.7L217.9,539.6 M217.9,539.6L214.4,545.6 M214.4,545.6L204.9,543.2 M204.9,543.2L175.3,561.0 M175.3,561.0L167.0,562.1 M167.0,562.1L158.7,556.2 M158.7,556.2L123.1,556.2 M123.1,556.2L112.4,544.4 M112.4,544.4L107.7,546.7 M107.7,546.7L103.0,549.1 M103.0,549.1L101.8,561.0 M101.8,561.0L87.6,588.2 M87.6,588.2L68.6,596.5 M68.6,596.5L53.2,607.2 M53.2,607.2L42.5,622.6 M42.5,622.6L37.8,623.8 M37.8,623.8L37.8,668.8 M37.8,668.8L308.0,668.8 M225.0,136.7L232.1,133.1 M232.1,133.1L240.4,117.7 M240.4,117.7L238.1,101.1 M238.1,101.1L229.8,96.4 M229.8,96.4L220.3,96.4 M220.3,96.4L217.9,99.9 M217.9,99.9L213.2,101.1 M213.2,101.1L210.8,98.7 M210.8,98.7L215.6,94.0 M215.6,94.0L215.6,89.3 M215.6,89.3L209.6,81.0 M209.6,81.0L208.4,73.9 M712.1,475.6L706.2,476.8 M706.2,476.8L706.2,482.7 M706.2,482.7L699.1,480.4 M699.1,480.4L697.9,488.7 M697.9,488.7L701.5,492.2 M701.5,492.2L712.1,495.8 M712.1,495.8L712.1,504.1 M712.1,504.1L718.1,511.2 M718.1,511.2L716.9,517.1 M716.9,517.1L732.3,515.9 M732.3,515.9L728.7,526.6 M728.7,526.6L737.0,523.0 M737.0,523.0L741.8,526.6 M741.8,526.6L747.7,524.2 M747.7,524.2L751.3,534.9 M751.3,534.9L764.3,537.3 M764.3,537.3L766.7,533.7 M766.7,533.7L772.6,534.9 M772.6,534.9L775.0,532.5 M775.0,532.5L777.3,520.7 M777.3,520.7L796.3,524.2 M270.1,387.9L267.7,380.8 M267.7,380.8L274.8,370.1 M274.8,370.1L290.2,361.9 M402.8,587.0L405.2,594.1 M405.2,594.1L419.4,594.1 M419.4,594.1L424.1,602.4 M424.1,602.4L436.0,603.6 M436.0,603.6L446.7,611.9 M446.7,611.9L475.1,613.1 M475.1,613.1L483.4,619.0 M483.4,619.0L495.3,621.4 M495.3,621.4L497.6,623.8 M497.6,623.8L496.4,632.1 M496.4,632.1L502.4,640.4 M502.4,640.4L535.6,651.0 M535.6,651.0L541.5,651.0 M541.5,651.0L559.3,661.7 M559.3,661.7L566.4,662.9 M566.4,668.8L308.0,668.8 M57.9,424.7L57.9,435.3 M57.9,435.3L53.2,442.4 M53.2,442.4L54.4,449.6 M54.4,449.6L44.9,466.1 M44.9,466.1L49.6,487.5 M49.6,487.5L53.2,483.9 M53.2,483.9L56.7,506.4 M56.7,506.4L50.8,521.9 M50.8,521.9L61.5,517.1 M61.5,517.1L73.3,521.9 M73.3,521.9L82.8,515.9 M875.7,557.4L871.0,564.5 M871.0,564.5L875.7,571.6 M875.7,571.6L868.6,578.7 M868.6,578.7L867.4,596.5 M867.4,596.5L862.7,606.0 M862.7,606.0L854.4,614.3 M854.4,614.3L848.4,639.2 M848.4,639.2L839.0,646.3 M891.1,668.8L961.0,668.8 M961.0,668.8L961.0,507.6 M853.2,293.1L867.4,286.0 M867.4,286.0L872.1,278.9 M872.1,278.9L888.7,277.7 M888.7,277.7L924.3,261.1 M924.3,261.1L926.7,263.5 M926.7,263.5L937.3,261.1 M937.3,261.1L936.1,269.4 M936.1,269.4L905.3,277.7 M905.3,277.7L920.7,290.7 M920.7,290.7L920.7,294.3 M920.7,294.3L912.4,297.9 M912.4,297.9L905.3,307.3 M905.3,307.3L907.7,313.3 M907.7,313.3L904.1,315.6 M904.1,315.6L897.0,314.4 M897.0,314.4L893.5,319.2 M893.5,319.2L903.0,329.9 M903.0,329.9L907.7,328.7 M907.7,328.7L908.9,334.6 M908.9,334.6L925.5,342.9 M925.5,342.9L961.0,373.7 M961.0,373.7L961.0,201.9 M961.0,419.9L940.9,421.1 M940.9,421.1L931.4,418.7 M931.4,418.7L923.1,425.9 M923.1,425.9L913.6,425.9 M913.6,425.9L906.5,421.1 M906.5,421.1L879.3,414.0 M879.3,414.0L875.7,405.7 M875.7,405.7L866.2,406.9 M866.2,406.9L860.3,398.6 M860.3,398.6L831.9,398.6 M831.9,398.6L825.9,396.2 M825.9,396.2L792.7,415.2 M961.0,507.6L961.0,419.9 M453.8,350.0L450.2,346.4 M450.2,346.4L444.3,345.3 M444.3,345.3L444.3,325.1 M444.3,325.1L439.6,320.4 M439.6,320.4L440.7,310.9 M421.8,325.1L413.5,335.8 M436.0,269.4L439.6,276.5 M487.0,442.4L498.8,455.5 M498.8,455.5L507.1,479.2 M507.1,479.2L498.8,488.7 M498.8,488.7L500.0,497.0 M500.0,497.0L507.1,497.0 M507.1,497.0L510.7,489.9 M510.7,489.9L515.4,487.5 M515.4,487.5L519.0,475.6 M519.0,475.6L528.4,474.4 M528.4,474.4L528.4,466.1 M528.4,466.1L527.3,462.6 M527.3,462.6L519.0,457.9 M519.0,457.9L520.1,447.2 M401.6,150.9L396.9,143.8 M458.5,108.2L473.9,113.0 M426.5,393.9L427.7,402.1 M427.7,402.1L446.7,415.2 M446.7,415.2L458.5,417.6 M458.5,417.6L462.1,412.8 M185.9,219.6L184.7,206.6 M184.7,206.6L178.8,191.2 M178.8,191.2L190.7,191.2 M190.7,191.2L193.0,193.6 M193.0,193.6L190.7,198.3 M190.7,198.3L208.4,203.0 M208.4,203.0L217.9,200.7 M217.9,200.7L217.9,191.2 M217.9,191.2L220.3,188.8 M220.3,188.8L240.4,182.9 M206.1,463.8L206.1,456.7 M206.1,456.7L223.9,433.0 M223.9,433.0L228.6,433.0 M228.6,433.0L232.1,429.4 M232.1,429.4L228.6,428.2 M228.6,428.2L236.9,418.7 M236.9,418.7L249.9,415.2 M249.9,415.2L274.8,399.8 M274.8,399.8L271.3,396.2 M271.3,396.2L270.1,387.9 M183.6,417.6L180.0,421.1 M510.7,414.0L504.7,411.6 M504.7,411.6L510.7,402.1 M510.7,402.1L507.1,399.8 M507.1,399.8L489.3,397.4 M489.3,397.4L477.5,389.1 M760.7,318.0L759.6,331.0 M759.6,331.0L751.3,329.9 M751.3,329.9L745.3,332.2 M745.3,332.2L741.8,339.3 M741.8,339.3L739.4,364.2 M739.4,364.2L731.1,364.2 M731.1,364.2L727.6,369.0 M727.6,369.0L727.6,380.8 M727.6,380.8L724.0,386.7 M724.0,386.7L731.1,402.1 M436.0,502.9L447.9,510.0 M447.9,510.0L466.8,515.9 M466.8,515.9L479.9,527.8 M479.9,527.8L485.8,529.0 M485.8,529.0L485.8,506.4 M485.8,506.4L489.3,498.1 M489.3,498.1L489.3,489.9 M489.3,489.9L471.6,494.6 M471.6,494.6L459.7,494.6 M459.7,494.6L450.2,491.0 M450.2,491.0L444.3,493.4 M444.3,493.4L441.9,492.2 M441.9,492.2L436.0,498.1 M436.0,498.1L436.0,502.9 M57.9,424.7L54.4,395.0 M54.4,395.0L56.7,384.4 M56.7,384.4L52.0,382.0 M52.0,382.0L46.1,372.5 M46.1,372.5L53.2,366.6 M53.2,366.6L61.5,366.6 M61.5,366.6L66.2,363.0 M66.2,363.0L65.0,359.5 M65.0,359.5L73.3,354.7 M73.3,354.7L81.6,355.9 M81.6,355.9L88.7,360.7 M88.7,360.7L94.7,358.3 M94.7,358.3L110.1,358.3 M110.1,358.3L130.2,361.9 M130.2,361.9L149.2,359.5 M149.2,359.5L153.9,363.0 M153.9,363.0L163.4,360.7 M163.4,360.7L167.0,364.2 M167.0,364.2L187.1,359.5 M183.6,417.6L168.1,425.9 M388.6,136.7L401.6,150.9 M408.7,172.2L402.8,174.6 M366.1,184.1L355.4,185.3 M668.3,425.9L676.6,423.5 M676.6,423.5L682.5,427.0 M682.5,427.0L693.2,428.2 M693.2,428.2L694.4,433.0 M694.4,433.0L700.3,434.1 M700.3,434.1L693.2,441.3 M693.2,441.3L699.1,441.3 M699.1,441.3L712.1,431.8 M712.1,431.8L705.0,425.9 M401.6,350.0L401.6,359.5 M401.6,359.5L406.4,374.9 M406.4,374.9L412.3,380.8 M412.3,380.8L417.0,391.5 M417.0,391.5L426.5,393.9 M369.6,190.0L368.4,203.0 M428.9,313.3L453.8,308.5 M453.8,308.5L457.3,301.4 M457.3,301.4L470.4,308.5 M470.4,308.5L462.1,308.5 M462.1,308.5L463.3,319.2 M463.3,319.2L466.8,325.1 M466.8,325.1L470.4,325.1 M470.4,325.1L473.9,315.6 M473.9,315.6L477.5,314.4 M489.3,295.5L477.5,294.3 M443.1,278.9L439.6,276.5 M497.6,229.1L508.3,231.5 M497.6,294.3L477.5,294.3 M443.1,278.9L436.0,269.4" stroke="#4c4433" stroke-width="1.3"/></g>
</svg>
